<svg aria-hidden="true" style="position: absolute; width: 0; height: 0; overflow: hidden;" version="1.1" xmlns="http://www.w3.org/2000/svg" xmlns:xlink="http://www.w3.org/1999/xlink">
    <defs>
        <symbol id="icon-gas-stove" viewBox="0 0 32 32">
            <path d="M8 25.333h5.333M24 25.345v-0.012M2.667 8c0-4.413 0.92-5.333 5.333-5.333h16c4.413 0 5.333 0.92 5.333 5.333v16c0 4.413-0.92 5.333-5.333 5.333h-16c-4.413 0-5.333-0.92-5.333-5.333v-16z"></path>
            <path d="M16 18.667c2.946 0 5.334-2.388 5.334-5.334s-2.388-5.334-5.334-5.334v0c-2.946 0-5.334 2.388-5.334 5.334s2.388 5.334 5.334 5.334v0zM20.667 13.333h2M16 18v2M11.333 13.333h-2M16 8.667v-2"></path>
        </symbol>
        <symbol id="icon-gas-stove-c" viewBox="0 0 32 32">
            <path d="M8.17 7.83h15.66c4.512 0 8.17 3.658 8.17 8.17s-3.658 8.17-8.17 8.17h-15.66c-4.512 0-8.17-3.658-8.17-8.17s3.658-8.17 8.17-8.17z"></path>
            <path d="M7.83 17.986h1.135M11.234 17.988v-0.003M6.695 14.298c0-0.939 0.196-1.135 1.135-1.135h3.404c0.939 0 1.135 0.196 1.135 1.135v3.404c0 0.939-0.196 1.135-1.135 1.135h-3.404c-0.939 0-1.135-0.196-1.135-1.135v-3.404z"></path>
            <path d="M9.532 16.567c0.627 0 1.135-0.508 1.135-1.135s-0.508-1.135-1.135-1.135v0c-0.627 0-1.135 0.508-1.135 1.135s0.508 1.135 1.135 1.135v0zM10.525 15.432h0.426M9.532 16.426v0.426M8.539 15.432h-0.426M9.532 14.44v-0.426"></path>
            <path d="M18.832 15.333c-0.038-0.12-0.089-0.225-0.154-0.319l0.003 0.004c-0.122-0.185-0.301-0.323-0.511-0.391l-0.007-0.002c-0.104-0.033-0.224-0.052-0.349-0.052-0.005 0-0.009 0-0.014 0h0.001c-0.223 0-0.424 0.057-0.604 0.172s-0.321 0.283-0.426 0.505c-0.103 0.22-0.155 0.49-0.155 0.81 0 0.321 0.052 0.592 0.157 0.814s0.247 0.39 0.429 0.505c0.182 0.115 0.389 0.172 0.621 0.172 0.215 0 0.403-0.044 0.563-0.131 0.159-0.086 0.286-0.213 0.371-0.367l0.002-0.005c0.089-0.161 0.133-0.351 0.133-0.569l0.155 0.029h-1.134v-0.493h1.557v0.45c0 0.333-0.071 0.622-0.213 0.867-0.139 0.241-0.338 0.433-0.576 0.561l-0.008 0.004c-0.247 0.133-0.531 0.199-0.851 0.199-0.358 0-0.673-0.082-0.944-0.247-0.269-0.165-0.48-0.399-0.63-0.702-0.151-0.304-0.226-0.665-0.226-1.083 0-0.316 0.044-0.6 0.131-0.851s0.211-0.465 0.369-0.64c0.154-0.171 0.341-0.308 0.553-0.4l0.010-0.004c0.204-0.089 0.442-0.141 0.692-0.141 0.006 0 0.013 0 0.019 0h-0.001c0.005-0 0.010-0 0.015-0 0.208 0 0.409 0.035 0.595 0.099l-0.013-0.004c0.186 0.063 0.351 0.153 0.495 0.269 0.288 0.23 0.489 0.558 0.554 0.933l0.001 0.009h-0.613zM21.049 18.108c-0.005 0-0.012 0-0.018 0-0.178 0-0.348-0.039-0.501-0.108l0.008 0.003c-0.149-0.069-0.272-0.174-0.36-0.304l-0.002-0.003c-0.088-0.134-0.132-0.299-0.132-0.493 0-0.168 0.032-0.306 0.097-0.414s0.151-0.194 0.261-0.257c0.106-0.061 0.229-0.11 0.358-0.141l0.009-0.002c0.135-0.032 0.273-0.057 0.414-0.074l0.433-0.050c0.111-0.014 0.191-0.036 0.242-0.067s0.076-0.082 0.076-0.151v-0.014c0-0.169-0.048-0.3-0.143-0.393-0.094-0.093-0.235-0.139-0.422-0.139-0.195 0-0.348 0.043-0.46 0.129-0.111 0.085-0.188 0.18-0.23 0.285l-0.544-0.124c0.065-0.18 0.159-0.326 0.283-0.437 0.125-0.112 0.269-0.193 0.431-0.244 0.162-0.051 0.334-0.077 0.513-0.077 0.118 0 0.244 0.014 0.377 0.043 0.134 0.027 0.259 0.077 0.375 0.151 0.117 0.074 0.213 0.179 0.288 0.315s0.112 0.312 0.112 0.528v1.973h-0.565v-0.406h-0.023c-0.037 0.075-0.094 0.148-0.168 0.221s-0.171 0.132-0.288 0.18-0.258 0.072-0.422 0.072zM21.174 17.644c0.16 0 0.296-0.031 0.41-0.095 0.109-0.058 0.198-0.142 0.259-0.245l0.002-0.003c0.061-0.103 0.091-0.213 0.091-0.331v-0.383c-0.020 0.020-0.061 0.040-0.12 0.058-0.058 0.017-0.125 0.032-0.199 0.045s-0.148 0.023-0.219 0.033c-0.071 0.009-0.13 0.017-0.178 0.023-0.112 0.014-0.214 0.038-0.308 0.072-0.091 0.034-0.165 0.082-0.22 0.145-0.054 0.062-0.081 0.144-0.081 0.247 0 0.143 0.053 0.252 0.159 0.325s0.24 0.109 0.404 0.109zM25.512 15.797l-0.524 0.093c-0.025-0.073-0.061-0.137-0.105-0.193l0.001 0.001c-0.050-0.063-0.114-0.114-0.186-0.148l-0.003-0.001c-0.080-0.038-0.18-0.058-0.3-0.058-0.164 0-0.301 0.037-0.41 0.11s-0.164 0.166-0.164 0.28c0 0.099 0.037 0.179 0.11 0.24s0.192 0.11 0.356 0.149l0.472 0.108c0.273 0.063 0.477 0.16 0.611 0.292s0.201 0.302 0.201 0.512c0 0.178-0.051 0.337-0.155 0.476-0.102 0.138-0.244 0.246-0.428 0.325-0.182 0.079-0.393 0.118-0.633 0.118-0.333 0-0.604-0.071-0.814-0.213-0.21-0.143-0.339-0.346-0.387-0.609l0.559-0.085c0.035 0.146 0.107 0.256 0.215 0.331 0.108 0.074 0.25 0.11 0.424 0.11 0.189 0 0.341-0.040 0.454-0.118 0.113-0.080 0.17-0.177 0.17-0.292 0-0.001 0-0.003 0-0.005 0-0.091-0.040-0.173-0.104-0.229l-0-0c-0.068-0.063-0.174-0.111-0.315-0.143l-0.503-0.111c-0.277-0.063-0.482-0.163-0.615-0.302-0.132-0.138-0.197-0.313-0.197-0.524 0-0.175 0.049-0.329 0.147-0.46s0.234-0.234 0.406-0.307c0.173-0.075 0.371-0.112 0.594-0.112 0.321 0 0.574 0.070 0.758 0.209 0.184 0.138 0.306 0.323 0.366 0.555z"></path>
        </symbol>
        <symbol id="icon-microwave-c" viewBox="0 0 32 32">
            <path d="M5.224 10.775h21.551c2.885 0 5.224 2.339 5.224 5.225s-2.339 5.224-5.224 5.224h-21.551c-2.885 0-5.224-2.339-5.224-5.224s2.339-5.224 5.224-5.224z"></path>
            <path d="M7.547 14.549h-2.903c-0.2 0-0.363 0.163-0.363 0.363v1.996c0 0.2 0.162 0.363 0.363 0.363h2.903c0.2 0 0.363-0.162 0.363-0.363v-1.996c0-0.2-0.162-0.363-0.363-0.363z"></path>
            <path d="M6.277 15.274h-1.088c-0.1 0-0.181 0.081-0.181 0.181v0 0.907c0 0.1 0.081 0.181 0.181 0.181h1.088c0.1 0 0.182-0.081 0.182-0.181v-0.907c0-0.1-0.081-0.181-0.181-0.181-0 0-0 0-0 0v0zM7.184 15.274v1.27M5.007 17.27v0.363M7.184 17.27v0.363"></path>
            <path d="M10.316 14.773h0.464l0.807 1.969h0.030l0.807-1.969h0.464v2.533h-0.364v-1.833h-0.024l-0.747 1.829h-0.302l-0.747-1.831h-0.024v1.834h-0.364v-2.533zM13.412 17.306v-1.9h0.37v1.9h-0.37zM13.598 15.113c-0.001 0-0.003 0-0.004 0-0.063 0-0.12-0.024-0.162-0.064l0 0c-0.042-0.038-0.068-0.093-0.068-0.154 0-0.001 0-0.001 0-0.002v0c0-0.061 0.023-0.113 0.068-0.156s0.101-0.066 0.166-0.066c0.064 0 0.119 0.022 0.164 0.065 0.043 0.038 0.069 0.093 0.069 0.154 0 0.001 0 0.002-0 0.003v-0c0 0 0 0.001 0 0.001 0 0.062-0.027 0.117-0.069 0.155l-0 0c-0.041 0.040-0.098 0.064-0.16 0.064-0.002 0-0.003-0-0.005-0h0zM15.079 17.344c-0.184 0-0.342-0.042-0.475-0.125-0.132-0.085-0.236-0.203-0.302-0.342l-0.002-0.005c-0.071-0.148-0.106-0.317-0.106-0.507 0-0.193 0.036-0.363 0.109-0.511 0.069-0.145 0.174-0.262 0.304-0.346l0.003-0.002c0.132-0.083 0.287-0.125 0.466-0.125 0.144 0 0.273 0.027 0.386 0.081 0.111 0.051 0.203 0.127 0.272 0.221l0.001 0.002c0.070 0.096 0.112 0.207 0.125 0.335h-0.36c-0.021-0.092-0.069-0.171-0.136-0.23l-0-0c-0.070-0.064-0.164-0.096-0.282-0.096-0.003-0-0.006-0-0.009-0-0.098 0-0.188 0.031-0.263 0.083l0.001-0.001c-0.077 0.054-0.136 0.13-0.179 0.23-0.043 0.099-0.064 0.216-0.064 0.351 0 0.139 0.021 0.258 0.063 0.359s0.101 0.178 0.178 0.234c0.078 0.055 0.169 0.083 0.273 0.083 0.070 0 0.133-0.013 0.19-0.038 0.058-0.027 0.106-0.064 0.145-0.113s0.067-0.107 0.083-0.176h0.36c-0.012 0.124-0.055 0.236-0.121 0.331l0.002-0.002c-0.069 0.097-0.159 0.175-0.265 0.226l-0.004 0.002c-0.111 0.055-0.242 0.083-0.392 0.083zM16.255 17.306v-1.9h0.357v0.302h0.020c0.035-0.102 0.096-0.183 0.183-0.241 0.088-0.059 0.188-0.089 0.299-0.089 0.056 0 0.11 0.003 0.164 0.009l-0.007-0.001v0.354c-0.022-0.005-0.049-0.010-0.076-0.013l-0.003-0c-0.034-0.005-0.074-0.009-0.114-0.009h-0c-0.087 0-0.165 0.019-0.234 0.056-0.132 0.071-0.22 0.208-0.22 0.366 0 0.002 0 0.005 0 0.007v-0 1.16h-0.37zM18.324 17.344c-0.178 0-0.334-0.041-0.466-0.122-0.133-0.083-0.239-0.2-0.307-0.338l-0.002-0.005c-0.074-0.147-0.11-0.318-0.11-0.515s0.037-0.369 0.11-0.517c0.070-0.144 0.176-0.26 0.306-0.342l0.003-0.002c0.133-0.081 0.288-0.122 0.466-0.122s0.334 0.041 0.466 0.123 0.236 0.196 0.309 0.344c0.073 0.147 0.11 0.32 0.11 0.517s-0.037 0.368-0.11 0.515c-0.070 0.143-0.176 0.259-0.306 0.341l-0.003 0.002c-0.133 0.082-0.288 0.122-0.466 0.122zM18.326 17.034c0.115 0 0.211-0.030 0.287-0.091s0.132-0.142 0.168-0.244c0.037-0.101 0.056-0.213 0.056-0.335 0-0.121-0.018-0.233-0.056-0.334-0.034-0.099-0.092-0.182-0.167-0.245l-0.001-0.001c-0.076-0.062-0.172-0.093-0.287-0.093s-0.213 0.031-0.29 0.093c-0.076 0.064-0.135 0.147-0.168 0.242l-0.001 0.004c-0.036 0.101-0.054 0.213-0.054 0.334s0.018 0.234 0.054 0.335c0.037 0.101 0.094 0.182 0.17 0.244s0.173 0.091 0.29 0.091zM19.977 17.306l-0.559-1.9h0.382l0.372 1.395h0.018l0.374-1.395h0.382l0.371 1.389h0.018l0.37-1.389h0.382l-0.558 1.9h-0.377l-0.386-1.372h-0.028l-0.386 1.372h-0.376zM22.992 17.348c-0.003 0-0.007 0-0.011 0-0.114 0-0.223-0.025-0.32-0.069l0.005 0.002c-0.096-0.044-0.174-0.111-0.23-0.195l-0.001-0.002c-0.056-0.086-0.084-0.191-0.084-0.315 0-0.107 0.021-0.195 0.062-0.265s0.097-0.124 0.167-0.165c0.068-0.039 0.146-0.071 0.229-0.090l0.006-0.001c0.087-0.021 0.175-0.036 0.265-0.047l0.277-0.032c0.071-0.009 0.122-0.023 0.155-0.043s0.048-0.052 0.048-0.097v-0.009c0-0.091-0.040-0.173-0.104-0.229l-0-0c-0.068-0.063-0.174-0.111-0.315-0.143l-0.503-0.111c-0.277-0.063-0.482-0.163-0.615-0.302-0.132-0.138-0.197-0.313-0.197-0.524 0-0.175 0.049-0.329 0.147-0.46s0.234-0.234 0.406-0.307c0.173-0.075 0.371-0.112 0.594-0.112 0.321 0 0.574 0.070 0.758 0.209 0.184 0.138 0.306 0.323 0.366 0.555z"></path>
        </symbol>
        <symbol id="icon-refrigerator-c" viewBox="0 0 32 32">
            <path d="M4.923 11.077h22.154c2.719 0 4.923 2.204 4.923 4.923s-2.204 4.923-4.923 4.923h-22.154c-2.719 0-4.923-2.204-4.923-4.923s2.204-4.923 4.923-4.923z"></path>
            <path d="M6.727 15.145c0-0.071-0.057-0.128-0.128-0.128s-0.128 0.057-0.128 0.128v0 0.342c0 0.071 0.057 0.128 0.128 0.128s0.128-0.057 0.128-0.128v0-0.342zM6.727 16.342c0-0.071-0.057-0.128-0.128-0.128s-0.128 0.057-0.128 0.128v0 0.342c0 0.071 0.057 0.128 0.128 0.128s0.128-0.057 0.128-0.128v0-0.342z"></path>
            <path d="M5.753 14.162h-0.019c-0.314 0-0.563 0-0.758 0.026-0.2 0.027-0.362 0.084-0.491 0.212s-0.185 0.29-0.212 0.491c-0.026 0.195-0.026 0.444-0.026 0.758v0.532c0 0.314 0 0.563 0.026 0.758 0.027 0.2 0.084 0.363 0.212 0.491 0.079 0.078 0.17 0.13 0.275 0.165v0.116c0 0.071 0.057 0.128 0.128 0.128h0.171c0.071 0 0.128-0.057 0.128-0.128v0-0.050c0.155 0.008 0.336 0.008 0.546 0.008h0.019c0.21 0 0.391 0 0.546-0.008v0.050c0 0.071 0.057 0.128 0.128 0.128h0.171c0.071 0 0.128-0.057 0.128-0.128v0-0.116c0.105-0.034 0.197-0.086 0.275-0.165 0.128-0.128 0.185-0.29 0.212-0.491 0.026-0.195 0.026-0.444 0.026-0.758v-0.532c0-0.314 0-0.563-0.026-0.758-0.027-0.2-0.084-0.362-0.212-0.49s-0.29-0.185-0.49-0.212c-0.195-0.026-0.444-0.026-0.758-0.026zM4.667 14.582c0.072-0.072 0.171-0.116 0.343-0.139 0.176-0.024 0.407-0.024 0.733-0.024s0.558 0 0.733 0.024c0.172 0.023 0.271 0.067 0.343 0.139s0.116 0.171 0.139 0.343c0.024 0.176 0.024 0.407 0.024 0.733v0.128h-2.479v-0.128c0-0.326 0-0.557 0.024-0.733 0.023-0.172 0.066-0.271 0.139-0.343zM4.504 16.043h2.479v0.128c0 0.326-0 0.558-0.024 0.733-0.023 0.172-0.066 0.271-0.139 0.343s-0.171 0.116-0.343 0.139c-0.176 0.024-0.407 0.024-0.733 0.024s-0.558-0-0.733-0.024c-0.172-0.023-0.271-0.066-0.343-0.139s-0.116-0.172-0.139-0.344c-0.024-0.175-0.024-0.407-0.024-0.733v-0.128z"></path>
            <path d="M9.729 17.231v-2.387h0.851c0.185 0 0.338 0.032 0.46 0.095s0.214 0.152 0.275 0.265c0.061 0.112 0.091 0.241 0.091 0.388s-0.031 0.275-0.092 0.386c-0.060 0.11-0.152 0.196-0.275 0.258s-0.276 0.092-0.46 0.092h-0.645v-0.31h0.612c0.117 0 0.211-0.017 0.284-0.050s0.128-0.082 0.162-0.146 0.051-0.14 0.051-0.23c0-0.090-0.017-0.168-0.053-0.234-0.036-0.067-0.092-0.12-0.16-0.151l-0.002-0.001c-0.073-0.036-0.169-0.054-0.288-0.054h-0.452v2.078h-0.36zM10.907 16.154l0.59 1.077h-0.41l-0.578-1.077h0.399zM12.565 17.267c-0.176 0-0.328-0.038-0.456-0.113-0.127-0.077-0.227-0.186-0.292-0.316l-0.002-0.004c-0.069-0.138-0.103-0.3-0.103-0.486 0-0.183 0.034-0.345 0.103-0.485 0.066-0.136 0.164-0.247 0.286-0.325l0.003-0.002c0.124-0.079 0.27-0.118 0.436-0.118 0.101 0 0.199 0.017 0.294 0.050s0.18 0.086 0.255 0.158c0.075 0.071 0.135 0.164 0.178 0.278s0.065 0.251 0.065 0.414v0.123h-1.423v-0.261h1.082c0-0.092-0.019-0.173-0.056-0.244s-0.090-0.128-0.155-0.168l-0.002-0.001c-0.067-0.041-0.145-0.062-0.236-0.062-0.098 0-0.183 0.024-0.256 0.072-0.071 0.047-0.128 0.11-0.167 0.184l-0.001 0.003c-0.039 0.076-0.058 0.159-0.058 0.248v0.204c0 0.12 0.021 0.222 0.063 0.305s0.102 0.148 0.178 0.192c0.076 0.044 0.165 0.065 0.267 0.065 0.066 0 0.126-0.009 0.181-0.028s0.102-0.048 0.141-0.086c0.040-0.038 0.070-0.085 0.091-0.141l0.33 0.059c-0.026 0.097-0.074 0.182-0.142 0.255-0.070 0.073-0.155 0.131-0.25 0.167l-0.005 0.002c-0.102 0.040-0.218 0.059-0.348 0.059zM14.572 15.441v0.28h-1.012v-0.28h1.012zM13.838 17.231v-1.998c0-0.112 0.025-0.205 0.073-0.279s0.114-0.13 0.195-0.167c0.076-0.035 0.164-0.056 0.258-0.056 0.002 0 0.004 0 0.006 0h-0c0.070 0 0.13 0.006 0.18 0.017s0.087 0.021 0.111 0.030l-0.082 0.282c-0.009-0.003-0.030-0.009-0.051-0.014l-0.012-0.002c-0.026-0.007-0.055-0.010-0.085-0.010-0.003 0-0.005 0-0.008 0h0c-0.085 0-0.145 0.021-0.182 0.063s-0.054 0.103-0.054 0.182v1.951h-0.348zM14.931 17.231v-1.79h0.337v0.284h0.019c0.033-0.096 0.090-0.172 0.172-0.227 0.083-0.056 0.177-0.084 0.282-0.084 0.053 0 0.104 0.003 0.155 0.009l-0.007-0.001v0.333c-0.021-0.005-0.046-0.010-0.072-0.013l-0.003-0c-0.032-0.005-0.069-0.008-0.107-0.008h-0c-0.082 0-0.156 0.018-0.22 0.053-0.124 0.067-0.208 0.196-0.208 0.345 0 0.002 0 0.004 0 0.006v-0 1.093h-0.348zM16.191 17.231v-1.79h0.349v1.79h-0.349zM16.367 15.164c-0.001 0-0.003 0-0.004 0-0.059 0-0.113-0.023-0.152-0.061l0 0c-0.040-0.036-0.064-0.088-0.064-0.146 0-0.001 0-0.001 0-0.001v0c0-0.057 0.021-0.107 0.064-0.147s0.096-0.062 0.156-0.062c0.061 0 0.112 0.021 0.155 0.062 0.040 0.036 0.065 0.087 0.065 0.145 0 0.001 0 0.002-0 0.003v-0c0 0 0 0.001 0 0.001 0 0.058-0.025 0.11-0.065 0.146l-0 0c-0.039 0.037-0.092 0.061-0.151 0.061-0.002 0-0.003-0-0.005-0h0zM17.759 17.939c-0.142 0-0.265-0.019-0.367-0.056s-0.185-0.087-0.249-0.148c-0.060-0.056-0.109-0.123-0.143-0.198l-0.002-0.004 0.299-0.123c0.021 0.034 0.049 0.070 0.084 0.108s0.084 0.072 0.144 0.099c0.062 0.027 0.14 0.041 0.237 0.041 0.132 0 0.241-0.032 0.327-0.097s0.129-0.166 0.129-0.305v-0.352h-0.022c-0.021 0.038-0.051 0.080-0.091 0.127s-0.093 0.087-0.161 0.121c-0.069 0.034-0.157 0.051-0.267 0.051-0.142 0-0.269-0.033-0.382-0.099s-0.202-0.165-0.268-0.295c-0.065-0.131-0.098-0.291-0.098-0.481s0.032-0.353 0.097-0.489c0.065-0.136 0.155-0.24 0.268-0.312 0.106-0.069 0.236-0.11 0.375-0.11 0.004 0 0.007 0 0.011 0h-0.001c0.111 0 0.201 0.019 0.269 0.056s0.122 0.079 0.16 0.128c0.039 0.049 0.069 0.092 0.090 0.129h0.026v-0.29h0.342v1.83c0 0.154-0.036 0.28-0.107 0.379s-0.168 0.172-0.29 0.219c-0.121 0.047-0.258 0.071-0.41 0.071zM17.756 16.915c0.1 0 0.185-0.023 0.254-0.070 0.070-0.048 0.123-0.115 0.159-0.203s0.055-0.194 0.055-0.318c0-0.121-0.018-0.227-0.054-0.318s-0.088-0.163-0.157-0.214c-0.069-0.052-0.155-0.078-0.256-0.078-0.105 0-0.192 0.027-0.262 0.081s-0.123 0.127-0.159 0.219c-0.035 0.092-0.052 0.196-0.052 0.31 0 0.117 0.018 0.22 0.054 0.309s0.089 0.158 0.159 0.208c0.071 0.050 0.158 0.074 0.261 0.074zM19.806 17.267c-0.176 0-0.328-0.038-0.456-0.113-0.127-0.077-0.227-0.186-0.292-0.316l-0.002-0.004c-0.068-0.138-0.103-0.3-0.103-0.486 0-0.183 0.034-0.345 0.103-0.485 0.066-0.136 0.165-0.247 0.286-0.325l0.003-0.002c0.124-0.079 0.27-0.118 0.436-0.118 0.101 0 0.199 0.017 0.294 0.050s0.18 0.086 0.255 0.158c0.075 0.071 0.135 0.164 0.178 0.278s0.065 0.251 0.065 0.414v0.123h-1.423v-0.261h1.081c0-0.092-0.018-0.173-0.056-0.244s-0.090-0.128-0.155-0.168l-0.002-0.001c-0.067-0.041-0.145-0.062-0.235-0.062-0.098 0-0.183 0.024-0.256 0.072-0.071 0.047-0.128 0.11-0.167 0.184l-0.001 0.003c-0.039 0.076-0.058 0.159-0.058 0.248v0.204c0 0.12 0.021 0.222 0.063 0.305 0.043 0.084 0.102 0.148 0.178 0.192s0.165 0.065 0.267 0.065c0.066 0 0.126-0.009 0.181-0.028s0.101-0.048 0.141-0.086c0.040-0.038 0.070-0.085 0.091-0.141l0.33 0.059c-0.026 0.097-0.074 0.182-0.142 0.255-0.070 0.073-0.155 0.131-0.25 0.167l-0.005 0.002c-0.102 0.040-0.218 0.059-0.349 0.059zM20.96 17.231v-1.79h0.337v0.284h0.019c0.033-0.096 0.090-0.172 0.172-0.227s0.177-0.084 0.282-0.084c0.053 0 0.104 0.003 0.155 0.009l-0.007-0.001v0.333c-0.020-0.005-0.046-0.010-0.072-0.013l-0.003-0c-0.032-0.005-0.069-0.008-0.107-0.008h-0c-0.002-0-0.005-0-0.008-0-0.078 0-0.151 0.019-0.215 0.054l0.002-0.001c-0.124 0.067-0.207 0.196-0.207 0.345 0 0.002 0 0.004 0 0.006v-0 1.093h-0.349zM22.724 17.27c-0.003 0-0.007 0-0.011 0-0.108 0-0.21-0.023-0.302-0.065l0.005 0.002c-0.090-0.041-0.164-0.105-0.217-0.183l-0.001-0.002c-0.053-0.081-0.079-0.18-0.079-0.297 0-0.101 0.019-0.184 0.058-0.249s0.091-0.117 0.157-0.155c0.064-0.037 0.138-0.067 0.216-0.085l0.006-0.001c0.082-0.020 0.165-0.034 0.249-0.044l0.261-0.030c0.067-0.008 0.115-0.022 0.146-0.041s0.046-0.049 0.046-0.091v-0.008c0-0.102-0.029-0.181-0.086-0.236-0.057-0.056-0.141-0.084-0.254-0.084-0.117 0-0.21 0.026-0.278 0.078-0.067 0.051-0.113 0.109-0.139 0.171l-0.327-0.075c0.039-0.109 0.095-0.197 0.17-0.263 0.072-0.065 0.159-0.116 0.255-0.146l0.005-0.001c0.091-0.030 0.195-0.047 0.304-0.047 0.002 0 0.004 0 0.005 0h-0c0.071 0 0.147 0.009 0.227 0.026s0.156 0.047 0.226 0.091c0.071 0.044 0.129 0.108 0.174 0.19s0.067 0.188 0.067 0.318v1.189h-0.34v-0.245h-0.014c-0.023 0.045-0.056 0.089-0.101 0.133s-0.103 0.080-0.174 0.108-0.155 0.043-0.254 0.043zM22.8 16.991c0.096 0 0.179-0.019 0.247-0.057s0.122-0.088 0.157-0.149c0.037-0.062 0.055-0.129 0.055-0.199v-0.231c-0.012 0.012-0.037 0.024-0.072 0.035s-0.075 0.019-0.12 0.027c-0.045 0.007-0.089 0.014-0.132 0.020s-0.079 0.010-0.107 0.014c-0.069 0.008-0.132 0.023-0.191 0.045l0.006-0.002c-0.055 0.020-0.099 0.049-0.133 0.088-0.033 0.037-0.049 0.087-0.049 0.149 0 0.086 0.032 0.152 0.096 0.196s0.145 0.065 0.244 0.065zM24.908 15.441v0.28h-0.978v-0.28h0.978zM24.192 15.012h0.349v1.694c0 0.067 0.010 0.118 0.030 0.153 0.018 0.031 0.045 0.055 0.077 0.068l0.001 0c0.033 0.012 0.068 0.017 0.106 0.017 0.028 0 0.052-0.002 0.073-0.006s0.037-0.007 0.049-0.009l0.063 0.288c-0.024 0.009-0.053 0.017-0.083 0.023l-0.004 0.001c-0.041 0.009-0.089 0.014-0.137 0.014-0.001 0-0.002 0-0.003 0h0c-0.005 0-0.010 0-0.016 0-0.087 0-0.17-0.018-0.245-0.051l0.004 0.002c-0.079-0.034-0.145-0.089-0.191-0.157l-0.001-0.002c-0.049-0.071-0.073-0.161-0.073-0.269v-1.766zM26.028 17.267c-0.168 0-0.314-0.038-0.439-0.115-0.126-0.079-0.225-0.188-0.289-0.318l-0.002-0.005c-0.069-0.138-0.104-0.3-0.104-0.485s0.035-0.348 0.104-0.487c0.066-0.135 0.166-0.245 0.288-0.322l0.003-0.002c0.125-0.077 0.272-0.115 0.439-0.115s0.314 0.039 0.44 0.116c0.126 0.079 0.225 0.189 0.289 0.319l0.002 0.005c0.069 0.139 0.104 0.301 0.104 0.487s-0.035 0.347-0.104 0.485c-0.066 0.135-0.166 0.244-0.288 0.321l-0.003 0.002c-0.125 0.077-0.272 0.115-0.44 0.115zM26.029 16.974c0.109 0 0.199-0.029 0.27-0.086s0.124-0.134 0.159-0.23c0.035-0.096 0.052-0.201 0.052-0.316 0-0.114-0.017-0.219-0.052-0.315-0.032-0.093-0.087-0.172-0.158-0.231l-0.001-0.001c-0.071-0.058-0.162-0.088-0.27-0.088s-0.2 0.029-0.273 0.088c-0.072 0.060-0.127 0.139-0.159 0.228l-0.001 0.004c-0.034 0.096-0.051 0.201-0.051 0.315s0.017 0.22 0.051 0.316c0.035 0.095 0.088 0.172 0.16 0.23s0.163 0.086 0.273 0.086zM27.252 17.231v-1.79h0.337v0.284h0.019c0.033-0.096 0.090-0.172 0.172-0.227s0.177-0.084 0.282-0.084c0.052 0 0.104 0.003 0.154 0.009l-0.007-0.001v0.333c-0.020-0.005-0.046-0.010-0.072-0.013l-0.003-0c-0.032-0.005-0.069-0.008-0.107-0.008h-0c-0.002-0-0.005-0-0.008-0-0.078 0-0.151 0.019-0.215 0.054l0.002-0.001c-0.124 0.067-0.207 0.196-0.207 0.344 0 0.002 0 0.005 0 0.007v-0 1.093h-0.349z"></path>
        </symbol>
        <symbol id="icon-bathroom-c" viewBox="0 0 32 32">
            <path d="M5.065 10.935h21.87c2.797 0 5.065 2.268 5.065 5.065s-2.268 5.065-5.065 5.065h-21.87c-2.797 0-5.065-2.268-5.065-5.065s2.268-5.065 5.065-5.065z"></path>
            <path d="M5.295 17.943c0 0.119-0.097 0.216-0.216 0.216s-0.216-0.097-0.216-0.216v0c0-0.119 0.097-0.216 0.216-0.216s0.216 0.097 0.216 0.216v0zM5.655 17.151c-0.119 0-0.216 0.097-0.216 0.216s0.097 0.216 0.216 0.216v0c0.119 0 0.216-0.097 0.216-0.216s-0.097-0.216-0.216-0.216v0zM4.504 17.151c-0.119 0-0.216 0.097-0.216 0.216s0.097 0.216 0.216 0.216v0c0.119 0 0.216-0.097 0.216-0.216s-0.097-0.216-0.216-0.216v0zM5.079 16.576c-0.119 0-0.216 0.097-0.216 0.216s0.097 0.216 0.216 0.216v0c0.119 0 0.216-0.097 0.216-0.216s-0.097-0.216-0.216-0.216v0zM8.748 14.417c0 0 0 0 0 0 0 0.079-0.064 0.144-0.144 0.144-0 0-0 0-0 0v0h-0.516l-0.501 0.501-0.39 2.28c-0.024 0.137-0.142 0.24-0.284 0.24-0.080 0-0.151-0.032-0.204-0.084l-1.763-1.763c-0.052-0.052-0.084-0.124-0.084-0.204 0-0.142 0.103-0.26 0.239-0.284l0.002-0 2.279-0.39 0.543-0.543c0.026-0.026 0.062-0.042 0.102-0.042 0 0 0 0 0 0h0.576c0 0 0 0 0 0 0.079 0 0.144 0.064 0.144 0.144 0 0 0 0 0 0v0zM7.277 15.169l-2.126 0.364 1.763 1.763 0.364-2.126zM10.931 17.381v-2.679h0.981c0.19 0 0.348 0.031 0.472 0.094s0.218 0.146 0.28 0.252c0.062 0.106 0.093 0.225 0.093 0.357 0 0.111-0.021 0.206-0.061 0.282s-0.096 0.137-0.165 0.183c-0.068 0.045-0.143 0.079-0.225 0.099v0.026c0.097 0.006 0.187 0.037 0.262 0.088l-0.002-0.001c0.086 0.052 0.156 0.127 0.212 0.224s0.084 0.215 0.084 0.353c0 0.137-0.032 0.26-0.097 0.369s-0.162 0.194-0.296 0.258c-0.134 0.063-0.304 0.094-0.511 0.094h-1.027zM11.335 17.035h0.583c0.194 0 0.332-0.038 0.416-0.112s0.126-0.169 0.126-0.281c0-0.084-0.021-0.162-0.064-0.233-0.045-0.072-0.107-0.13-0.18-0.168l-0.003-0.001c-0.079-0.042-0.172-0.063-0.28-0.063h-0.598v0.858zM11.335 15.861h0.541c0.091 0 0.172-0.018 0.245-0.052 0.071-0.033 0.13-0.083 0.173-0.145l0.001-0.001c0.044-0.064 0.065-0.139 0.065-0.225 0-0.111-0.039-0.204-0.117-0.279s-0.197-0.113-0.357-0.113h-0.552v0.815zM13.894 17.426c-0.004 0-0.008 0-0.012 0-0.121 0-0.235-0.026-0.338-0.073l0.005 0.002c-0.101-0.046-0.184-0.118-0.243-0.206l-0.001-0.002c-0.059-0.091-0.089-0.202-0.089-0.334 0-0.113 0.022-0.207 0.065-0.28s0.102-0.131 0.177-0.174c0.072-0.041 0.155-0.075 0.242-0.095l0.006-0.001c0.091-0.022 0.185-0.038 0.28-0.050l0.293-0.034c0.075-0.009 0.13-0.025 0.163-0.046s0.051-0.055 0.051-0.102v-0.009c0-0.114-0.032-0.203-0.097-0.265s-0.159-0.094-0.285-0.094c-0.131 0-0.235 0.029-0.311 0.087s-0.127 0.122-0.156 0.192l-0.368-0.084c0.044-0.122 0.107-0.221 0.191-0.296s0.182-0.131 0.292-0.165c0.11-0.035 0.225-0.052 0.346-0.052 0.080 0 0.165 0.010 0.255 0.029s0.175 0.052 0.254 0.102c0.079 0.050 0.144 0.121 0.195 0.213s0.076 0.211 0.076 0.357v1.334h-0.382v-0.275h-0.016c-0.025 0.051-0.063 0.1-0.114 0.149s-0.116 0.089-0.195 0.122c-0.079 0.032-0.174 0.048-0.285 0.048zM13.979 17.112c0.108 0 0.201-0.021 0.277-0.064 0.074-0.039 0.134-0.096 0.175-0.165l0.001-0.002c0.041-0.070 0.061-0.144 0.061-0.224v-0.259c-0.014 0.014-0.041 0.027-0.081 0.039-0.039 0.012-0.084 0.022-0.135 0.030s-0.1 0.015-0.148 0.022c-0.048 0.006-0.088 0.012-0.12 0.016-0.076 0.010-0.145 0.026-0.208 0.048s-0.112 0.055-0.149 0.098c-0.037 0.042-0.055 0.098-0.055 0.167 0 0.097 0.036 0.17 0.107 0.22s0.163 0.073 0.274 0.073zM16.345 15.372v0.314h-1.097v-0.314h1.097zM15.541 14.891h0.391v1.901c0 0.076 0.011 0.133 0.034 0.171 0.020 0.035 0.050 0.062 0.086 0.077l0.001 0c0.037 0.013 0.076 0.020 0.119 0.020 0.031 0 0.059-0.002 0.082-0.006s0.042-0.008 0.055-0.011l0.071 0.323c-0.027 0.010-0.059 0.019-0.093 0.026l-0.004 0.001c-0.042 0.009-0.094 0.015-0.157 0.016-0.005 0-0.011 0-0.018 0-0.098 0-0.191-0.020-0.275-0.057l0.004 0.002c-0.089-0.039-0.163-0.1-0.215-0.176l-0.001-0.002c-0.055-0.080-0.082-0.181-0.082-0.302v-1.982zM17.212 16.188v1.193h-0.391v-2.679h0.386v0.997h0.025c0.047-0.108 0.119-0.194 0.216-0.258s0.223-0.096 0.379-0.096c0.138 0 0.258 0.028 0.361 0.085s0.184 0.141 0.241 0.254c0.058 0.112 0.086 0.251 0.086 0.419v1.278h-0.391v-1.231c0-0.147-0.038-0.262-0.114-0.343s-0.181-0.123-0.317-0.123c-0.003-0-0.006-0-0.009-0-0.088 0-0.17 0.022-0.242 0.060l0.003-0.001c-0.072 0.039-0.129 0.097-0.171 0.173s-0.061 0.166-0.061 0.272zM19.036 17.381v-2.009h0.378v0.319h0.021c0.037-0.108 0.101-0.193 0.194-0.255s0.199-0.094 0.317-0.094c0.059 0 0.117 0.004 0.173 0.010l-0.007-0.001v0.374c-0.023-0.006-0.051-0.011-0.080-0.014l-0.003-0c-0.036-0.006-0.078-0.009-0.12-0.009h-0c-0.092 0-0.175 0.020-0.247 0.059-0.14 0.075-0.233 0.22-0.233 0.387 0 0.002 0 0.005 0 0.007v-0 1.227h-0.391zM21.224 17.422c-0.188 0-0.353-0.043-0.493-0.129-0.141-0.088-0.253-0.211-0.325-0.357l-0.002-0.005c-0.078-0.155-0.116-0.337-0.116-0.544s0.039-0.391 0.116-0.547c0.074-0.152 0.186-0.275 0.323-0.362l0.004-0.002c0.14-0.086 0.305-0.129 0.493-0.129s0.353 0.043 0.493 0.13c0.14 0.086 0.25 0.207 0.327 0.364s0.116 0.338 0.116 0.547c0 0.208-0.039 0.389-0.116 0.544-0.074 0.151-0.186 0.274-0.323 0.36l-0.004 0.002c-0.14 0.086-0.305 0.129-0.493 0.129zM21.226 17.094c0.122 0 0.223-0.032 0.303-0.097s0.14-0.151 0.178-0.258c0.039-0.107 0.059-0.225 0.059-0.355 0-0.128-0.020-0.246-0.059-0.353-0.036-0.105-0.097-0.193-0.177-0.259l-0.001-0.001c-0.080-0.065-0.181-0.098-0.303-0.098s-0.225 0.033-0.306 0.098c-0.081 0.068-0.143 0.156-0.178 0.256l-0.001 0.004c-0.038 0.107-0.058 0.225-0.058 0.353s0.019 0.247 0.058 0.355c0.039 0.107 0.099 0.193 0.179 0.258 0.081 0.064 0.183 0.097 0.306 0.097zM23.444 17.422c-0.188 0-0.353-0.043-0.493-0.129-0.141-0.088-0.253-0.211-0.325-0.357l-0.002-0.005c-0.078-0.155-0.116-0.337-0.116-0.544s0.039-0.391 0.116-0.547c0.074-0.152 0.186-0.275 0.323-0.362l0.004-0.002c0.141-0.086 0.305-0.129 0.493-0.129s0.353 0.043 0.493 0.13c0.14 0.086 0.249 0.207 0.327 0.364s0.116 0.338 0.116 0.547c0 0.208-0.039 0.389-0.116 0.544-0.074 0.151-0.186 0.274-0.323 0.36l-0.004 0.002c-0.14 0.086-0.305 0.129-0.493 0.129zM23.445 17.094c0.122 0 0.223-0.032 0.304-0.097s0.14-0.151 0.178-0.258c0.039-0.107 0.059-0.225 0.059-0.355 0-0.128-0.020-0.246-0.059-0.353-0.036-0.105-0.097-0.193-0.177-0.259l-0.001-0.001c-0.080-0.065-0.181-0.098-0.304-0.098s-0.225 0.033-0.306 0.098c-0.081 0.068-0.143 0.156-0.178 0.256l-0.001 0.004c-0.038 0.107-0.058 0.225-0.058 0.353s0.019 0.247 0.058 0.355c0.039 0.107 0.099 0.193 0.179 0.258s0.183 0.097 0.306 0.097zM24.817 17.381v-2.009h0.375v0.327h0.025c0.042-0.111 0.11-0.197 0.205-0.259s0.209-0.094 0.341-0.094c0.134 0 0.247 0.032 0.337 0.094s0.159 0.149 0.203 0.259h0.021c0.049-0.108 0.128-0.196 0.227-0.255l0.003-0.001c0.105-0.064 0.229-0.097 0.374-0.097 0.182 0 0.331 0.057 0.446 0.171s0.174 0.287 0.174 0.517v1.347h-0.391v-1.311c0-0.136-0.037-0.235-0.111-0.296-0.069-0.057-0.159-0.092-0.256-0.092-0.003 0-0.006 0-0.009 0h0c-0.127 0-0.226 0.039-0.297 0.118s-0.106 0.178-0.106 0.3v1.28h-0.39v-1.335c0-0.109-0.034-0.197-0.102-0.263s-0.157-0.099-0.265-0.099c-0.074 0-0.142 0.020-0.205 0.059s-0.114 0.094-0.149 0.158l-0.001 0.002c-0.035 0.066-0.056 0.145-0.056 0.229 0 0.004 0 0.007 0 0.011v-0.001 1.239h-0.391z"></path>
        </symbol>
        <symbol id="icon-radio" viewBox="0 0 32 32">
            <path d="M6.519 9.481h18.963c3.6 0 6.519 2.918 6.519 6.519s-2.918 6.519-6.519 6.519h-18.963c-3.6 0-6.519-2.918-6.519-6.519s2.918-6.519 6.519-6.519z"></path>
            <path d="M7.926 13.963c0-0 0-0 0-0 0-0.102 0.083-0.185 0.185-0.185 0 0 0 0 0 0h2.593c0 0 0 0 0 0 0.102 0 0.185 0.083 0.185 0.185 0 0 0 0 0 0v-0 0.37c0 0 0 0 0 0 0 0.102-0.083 0.185-0.185 0.185-0 0-0 0-0 0h-2.593c-0 0-0 0-0 0-0.102 0-0.185-0.083-0.185-0.185 0-0 0-0 0-0v0-0.37zM5.333 17.481c0-0.614 0.497-1.111 1.111-1.111s1.111 0.497 1.111 1.111v0c0 0.614-0.497 1.111-1.111 1.111s-1.111-0.497-1.111-1.111v0zM7.926 16.926c0-0 0-0 0-0 0-0.102 0.083-0.185 0.185-0.185 0 0 0 0 0 0h2.593c0 0 0 0 0 0 0.102 0 0.185 0.083 0.185 0.185 0 0 0 0 0 0v-0 0.37c0 0 0 0 0 0 0 0.102-0.083 0.185-0.185 0.185-0 0-0 0-0 0h-2.593c-0 0-0 0-0 0-0.102 0-0.185-0.083-0.185-0.185 0-0 0-0 0-0v0-0.37zM7.926 15.074c0-0 0-0 0-0 0-0.102 0.083-0.185 0.185-0.185 0 0 0 0 0 0h1.852c0.102 0 0.185 0.083 0.185 0.185s-0.083 0.185-0.185 0.185v0h-1.852c-0 0-0 0-0 0-0.102 0-0.185-0.083-0.185-0.185 0-0 0-0 0-0v0zM7.926 18.037c0-0 0-0 0-0 0-0.102 0.083-0.185 0.185-0.185 0 0 0 0 0 0h1.852c0.102 0 0.185 0.083 0.185 0.185s-0.083 0.185-0.185 0.185v0h-1.852c-0 0-0 0-0 0-0.102 0-0.185-0.083-0.185-0.185 0-0 0-0 0-0v0zM6.444 13.407c-0.005-0-0.012-0-0.018-0-0.614 0-1.111 0.497-1.111 1.111s0.497 1.111 1.111 1.111c0.006 0 0.013-0 0.019-0h-0.001c0.606-0.010 1.093-0.504 1.093-1.111s-0.487-1.101-1.092-1.111h-0.001zM6.444 15.074c-0.307 0-0.556-0.249-0.556-0.556s0.249-0.556 0.556-0.556v0c0.307 0 0.556 0.249 0.556 0.556s-0.249 0.556-0.556 0.556v0zM14.147 17.778v-3.448h1.229c0.267 0 0.489 0.046 0.665 0.138 0.177 0.092 0.31 0.22 0.397 0.382s0.131 0.349 0.131 0.561c0 0.211-0.044 0.397-0.133 0.557-0.087 0.159-0.22 0.284-0.397 0.372s-0.398 0.133-0.665 0.133h-0.931v-0.448h0.884c0.168 0 0.305-0.024 0.411-0.072s0.185-0.119 0.234-0.21c0.049-0.092 0.074-0.203 0.074-0.332s-0.025-0.243-0.076-0.338c-0.052-0.097-0.133-0.173-0.231-0.217l-0.003-0.001c-0.105-0.052-0.244-0.078-0.416-0.078h-0.653v3.002h-0.52zM15.849 16.222l0.852 1.556h-0.593l-0.835-1.556h0.576zM17.915 17.835c-0.005 0-0.010 0-0.015 0-0.155 0-0.303-0.034-0.436-0.094l0.007 0.003c-0.13-0.060-0.237-0.151-0.313-0.265l-0.002-0.003c-0.076-0.117-0.115-0.26-0.115-0.429 0-0.146 0.028-0.266 0.084-0.36s0.132-0.169 0.227-0.224c0.092-0.053 0.199-0.096 0.312-0.123l0.008-0.002c0.118-0.028 0.238-0.049 0.36-0.064l0.377-0.044c0.096-0.012 0.167-0.032 0.21-0.059s0.065-0.071 0.065-0.132v-0.012c0-0.147-0.041-0.261-0.124-0.342s-0.204-0.121-0.367-0.121c-0.169 0-0.303 0.038-0.401 0.113s-0.163 0.157-0.2 0.248l-0.473-0.108c0.056-0.157 0.138-0.284 0.246-0.38 0.109-0.098 0.234-0.168 0.375-0.212s0.29-0.067 0.446-0.067c0.103 0 0.213 0.012 0.328 0.037 0.117 0.024 0.226 0.067 0.327 0.131s0.186 0.156 0.251 0.274c0.065 0.118 0.098 0.271 0.098 0.46v1.717h-0.492v-0.353h-0.020c-0.033 0.065-0.081 0.129-0.147 0.192s-0.149 0.115-0.251 0.156c-0.102 0.041-0.225 0.062-0.367 0.062zM18.025 17.431c0.139 0 0.258-0.027 0.357-0.082 0.095-0.051 0.172-0.124 0.226-0.213l0.001-0.003c0.053-0.090 0.079-0.186 0.079-0.288v-0.333c-0.018 0.018-0.053 0.035-0.104 0.050-0.050 0.015-0.108 0.028-0.174 0.039s-0.128 0.020-0.19 0.029c-0.062 0.008-0.113 0.015-0.155 0.020-0.098 0.012-0.187 0.033-0.268 0.062-0.080 0.029-0.143 0.071-0.192 0.127-0.047 0.054-0.071 0.126-0.071 0.215 0 0.124 0.046 0.219 0.138 0.283s0.209 0.095 0.352 0.095zM20.83 17.828c-0.209 0-0.395-0.053-0.559-0.16-0.163-0.108-0.29-0.261-0.384-0.459-0.092-0.2-0.138-0.439-0.138-0.719s0.047-0.519 0.14-0.717c0.094-0.199 0.223-0.351 0.387-0.456 0.153-0.099 0.341-0.158 0.542-0.158 0.005 0 0.011 0 0.016 0h-0.001c0.161 0 0.289 0.027 0.387 0.081 0.099 0.053 0.175 0.114 0.229 0.185s0.098 0.133 0.128 0.187h0.031v-1.281h0.503v3.448h-0.492v-0.402h-0.042c-0.030 0.055-0.074 0.118-0.131 0.188s-0.133 0.132-0.232 0.185c-0.099 0.053-0.227 0.079-0.384 0.079zM20.941 17.399c0.145 0 0.267-0.039 0.367-0.115 0.101-0.077 0.177-0.185 0.229-0.321 0.053-0.137 0.079-0.296 0.079-0.478 0-0.18-0.026-0.337-0.077-0.471s-0.127-0.24-0.227-0.315c-0.1-0.075-0.223-0.113-0.37-0.113-0.152 0-0.278 0.039-0.379 0.118s-0.177 0.186-0.229 0.321c-0.050 0.136-0.076 0.289-0.076 0.46 0 0.173 0.026 0.328 0.077 0.466s0.128 0.247 0.229 0.328c0.102 0.080 0.228 0.12 0.377 0.12zM22.829 17.778v-2.586h0.504v2.586h-0.504zM23.083 14.793c-0.002 0-0.004 0-0.006 0-0.085 0-0.163-0.033-0.22-0.088l0 0c-0.057-0.052-0.093-0.127-0.093-0.21 0-0.001 0-0.001 0-0.002v0c0-0.083 0.031-0.154 0.093-0.212 0.063-0.059 0.138-0.089 0.225-0.089s0.162 0.030 0.224 0.089c0.058 0.051 0.094 0.126 0.094 0.209 0 0.001 0 0.003-0 0.004v-0c0 0 0 0.001 0 0.002 0 0.084-0.036 0.159-0.094 0.21l-0 0c-0.056 0.054-0.133 0.087-0.217 0.087-0.002 0-0.005-0-0.007-0h0zM25.099 17.83c-0.242 0-0.454-0.055-0.635-0.167-0.181-0.113-0.325-0.272-0.418-0.46l-0.003-0.007c-0.1-0.2-0.15-0.433-0.15-0.7s0.050-0.503 0.15-0.704c0.095-0.195 0.239-0.354 0.416-0.465l0.005-0.003c0.181-0.111 0.393-0.167 0.635-0.167s0.454 0.056 0.635 0.167c0.181 0.111 0.321 0.267 0.421 0.468s0.15 0.435 0.15 0.703c0 0.267-0.050 0.501-0.15 0.7-0.096 0.195-0.239 0.353-0.416 0.464l-0.005 0.003c-0.181 0.111-0.392 0.167-0.635 0.167zM25.1 17.407c0.157 0 0.287-0.041 0.391-0.124s0.18-0.194 0.229-0.332c0.050-0.138 0.076-0.29 0.076-0.456 0-0.165-0.025-0.316-0.076-0.455-0.046-0.135-0.125-0.248-0.228-0.334l-0.001-0.001c-0.103-0.084-0.233-0.127-0.391-0.127s-0.289 0.042-0.394 0.127c-0.104 0.087-0.184 0.2-0.229 0.33l-0.002 0.005c-0.049 0.138-0.074 0.29-0.074 0.455s0.025 0.318 0.074 0.456c0.051 0.138 0.127 0.248 0.231 0.332s0.236 0.124 0.394 0.124z"></path>
        </symbol>
        <symbol id="icon-kitchen-c" viewBox="0 0 32 32">
            <path d="M5.724 10.276h20.553c3.161 0 5.724 2.563 5.724 5.724s-2.563 5.724-5.724 5.724h-20.553c-3.161 0-5.724-2.563-5.724-5.724s2.563-5.724 5.724-5.724z"></path>
            <path d="M4.846 15.35c-0.090 0-0.162 0.073-0.162 0.163 0 0.012 0.001 0.024 0.004 0.036l-0-0.001 0.537 2.417c0.084 0.367 0.407 0.637 0.793 0.637h1.884c0.386-0 0.71-0.27 0.792-0.631l0.001-0.005 0.043-0.192c0.055 0.011 0.117 0.017 0.181 0.017 0.539 0 0.976-0.437 0.976-0.976 0-0.453-0.309-0.834-0.727-0.944l-0.007-0.002 0.072-0.322c0.002-0.011 0.004-0.023 0.004-0.035 0-0.090-0.073-0.163-0.163-0.163h-4.228zM8.911 17.463c-0 0-0 0-0.001 0-0.036 0-0.071-0.003-0.106-0.009l0.004 0 0.282-1.268c0.273 0.081 0.469 0.33 0.469 0.625 0 0.358-0.29 0.649-0.648 0.651h-0zM5.541 17.894l-0.493-2.219h3.822l-0.493 2.219c-0.050 0.22-0.244 0.382-0.476 0.382h-1.884c-0.232-0-0.426-0.162-0.475-0.379l-0.001-0.003z"></path>
            <path d="M6.114 13.659l-0.001 0.001-0.004 0.006c-0.024 0.033-0.046 0.066-0.066 0.101-0.016 0.025-0.031 0.053-0.044 0.083l-0.002 0.004c-0.008 0.020-0.011 0.030-0.012 0.034v0.001c0.004 0.030 0.015 0.058 0.030 0.081l-0-0.001c0.024 0.043 0.058 0.088 0.1 0.145l0.003 0.004c0.038 0.052 0.085 0.113 0.12 0.177 0.036 0.065 0.072 0.148 0.072 0.242 0 0.061-0.021 0.12-0.039 0.161-0.019 0.043-0.041 0.086-0.066 0.126-0.029 0.049-0.057 0.089-0.086 0.129l-0.003 0.004-0.002 0.003-0.001 0.001c-0.030 0.040-0.077 0.065-0.13 0.065-0.090 0-0.163-0.073-0.163-0.163 0-0.037 0.012-0.071 0.033-0.098l-0 0 0.001-0.001 0.004-0.006c0.024-0.033 0.046-0.066 0.066-0.101 0.017-0.028 0.033-0.057 0.046-0.087 0.008-0.020 0.011-0.030 0.012-0.034-0.004-0.031-0.014-0.059-0.030-0.083l0 0.001c-0.033-0.055-0.066-0.102-0.102-0.147l0.002 0.002-0.003-0.004c-0.041-0.051-0.080-0.109-0.116-0.169l-0.004-0.007c-0.042-0.069-0.069-0.152-0.072-0.241l-0-0.001c0-0.061 0.021-0.12 0.039-0.161 0.022-0.050 0.044-0.091 0.068-0.131l-0.003 0.005c0.026-0.043 0.053-0.084 0.082-0.124l0.008-0.011c0.030-0.040 0.077-0.065 0.13-0.065 0.090 0 0.163 0.073 0.163 0.163 0 0.037-0.012 0.071-0.033 0.098l0-0zM7.089 13.659l-0.001 0.001-0.004 0.006c-0.024 0.033-0.046 0.066-0.066 0.101-0.016 0.025-0.031 0.053-0.044 0.083l-0.002 0.004c-0.008 0.020-0.011 0.030-0.012 0.034v0.001c0.004 0.030 0.015 0.058 0.030 0.081l-0-0.001c0.024 0.043 0.058 0.088 0.1 0.145l0.003 0.004c0.038 0.052 0.085 0.113 0.12 0.177 0.036 0.065 0.072 0.148 0.072 0.242 0 0.061-0.021 0.12-0.039 0.161-0.019 0.043-0.041 0.086-0.066 0.126-0.029 0.049-0.057 0.089-0.086 0.129l0.003-0.004-0.006 0.008-0.002 0.003-0.001 0.001c-0.030 0.040-0.077 0.065-0.13 0.065-0.090 0-0.163-0.073-0.163-0.163 0-0.037 0.012-0.071 0.033-0.098l-0 0 0.001-0.001 0.004-0.006c0.024-0.033 0.046-0.066 0.066-0.101 0.016-0.025 0.031-0.053 0.044-0.083l0.002-0.004c0.008-0.020 0.011-0.030 0.012-0.034-0.004-0.031-0.014-0.059-0.030-0.083l0 0.001c-0.033-0.055-0.066-0.102-0.102-0.147l0.002 0.003-0.003-0.004c-0.041-0.051-0.080-0.109-0.116-0.169l-0.004-0.007c-0.042-0.069-0.069-0.152-0.072-0.241l-0-0.001c0-0.061 0.021-0.12 0.039-0.161 0.019-0.045 0.043-0.089 0.066-0.126 0.026-0.043 0.053-0.084 0.082-0.124l0.008-0.011c0.030-0.040 0.077-0.065 0.13-0.065 0.090 0 0.163 0.073 0.163 0.163 0 0.037-0.012 0.071-0.033 0.098l0-0zM8.065 13.659l-0.001 0.001-0.004 0.006c-0.021 0.028-0.043 0.061-0.063 0.095l-0.003 0.006c-0.016 0.025-0.031 0.053-0.044 0.083l-0.002 0.004c-0.008 0.020-0.011 0.030-0.012 0.034v0.001c0.004 0.030 0.015 0.058 0.030 0.081l-0-0.001c0.024 0.043 0.058 0.088 0.1 0.145l0.003 0.004c0.039 0.052 0.085 0.113 0.12 0.177 0.036 0.065 0.072 0.148 0.072 0.242 0 0.061-0.021 0.12-0.039 0.161-0.019 0.043-0.041 0.086-0.066 0.126-0.029 0.049-0.056 0.089-0.085 0.129l0.003-0.005-0.006 0.008-0.002 0.003-0.001 0.001c-0.030 0.040-0.077 0.065-0.13 0.065-0.090 0-0.163-0.073-0.163-0.163 0-0.037 0.012-0.071 0.033-0.098l-0 0 0.001-0.001 0.004-0.006c0.024-0.033 0.046-0.066 0.066-0.101 0.016-0.025 0.031-0.053 0.044-0.083l0.002-0.004c0.008-0.020 0.011-0.030 0.012-0.034-0.004-0.031-0.014-0.059-0.030-0.083l0 0.001c-0.033-0.055-0.066-0.102-0.102-0.147l0.002 0.003-0.003-0.004c-0.041-0.051-0.080-0.109-0.116-0.169l-0.004-0.007c-0.042-0.069-0.069-0.152-0.072-0.241l-0-0.001c0-0.061 0.021-0.12 0.039-0.161 0.022-0.050 0.044-0.091 0.068-0.131l-0.003 0.005c0.026-0.043 0.053-0.084 0.082-0.124l0.008-0.011c0.030-0.040 0.077-0.065 0.13-0.065 0.090 0 0.163 0.073 0.163 0.163 0 0.037-0.012 0.071-0.033 0.098l0-0z"></path>
            <path d="M12.343 17.561v-3.027h0.457v1.445h0.037l1.27-1.445h0.575l-1.221 1.363 1.225 1.665h-0.55l-0.978-1.353-0.358 0.411v0.942h-0.457zM15.214 17.561v-2.27h0.442v2.27h-0.442zM15.437 14.94c-0.001 0-0.003 0-0.005 0-0.075 0-0.143-0.029-0.193-0.077l0 0c-0.050-0.046-0.081-0.112-0.081-0.185 0-0.001 0-0.001 0-0.002v0c0-0.073 0.027-0.135 0.081-0.186 0.055-0.052 0.121-0.078 0.198-0.078s0.143 0.026 0.197 0.078c0.051 0.045 0.083 0.111 0.083 0.184 0 0.001 0 0.002-0 0.003v-0c0 0 0 0.001 0 0.001 0 0.073-0.032 0.139-0.082 0.185l-0 0c-0.049 0.048-0.117 0.077-0.191 0.077-0.002 0-0.004-0-0.006-0h0zM17.31 15.291v0.355h-1.24v-0.355h1.24zM16.403 14.747h0.442v2.148c0 0.086 0.013 0.15 0.038 0.194 0.022 0.039 0.056 0.070 0.098 0.087l0.001 0c0.042 0.015 0.086 0.022 0.135 0.022 0.035 0 0.067-0.003 0.093-0.007s0.047-0.009 0.062-0.012l0.080 0.365c-0.030 0.011-0.067 0.021-0.105 0.029l-0.005 0.001c-0.047 0.011-0.107 0.017-0.177 0.018-0.006 0-0.013 0-0.020 0-0.11 0-0.215-0.023-0.31-0.064l0.005 0.002c-0.101-0.044-0.184-0.113-0.243-0.199l-0.001-0.002c-0.062-0.091-0.093-0.204-0.093-0.341v-2.239zM18.731 17.607c-0.22 0-0.409-0.050-0.568-0.149-0.158-0.102-0.282-0.243-0.361-0.409l-0.003-0.006c-0.085-0.176-0.127-0.379-0.127-0.606 0-0.23 0.043-0.434 0.13-0.61 0.083-0.173 0.208-0.314 0.363-0.413l0.004-0.002c0.158-0.1 0.343-0.149 0.557-0.149 0.172 0 0.326 0.032 0.461 0.096 0.135 0.063 0.244 0.152 0.326 0.266 0.084 0.114 0.133 0.248 0.149 0.401h-0.43c-0.024-0.107-0.078-0.198-0.163-0.275s-0.196-0.115-0.337-0.115c-0.003-0-0.007-0-0.011-0-0.117 0-0.225 0.037-0.314 0.099l0.002-0.001c-0.092 0.064-0.163 0.156-0.214 0.275-0.051 0.118-0.077 0.258-0.077 0.42 0 0.166 0.025 0.309 0.075 0.429s0.121 0.213 0.213 0.279c0.093 0.066 0.201 0.099 0.326 0.099 0.084 0 0.16-0.015 0.228-0.046 0.069-0.032 0.127-0.076 0.173-0.134 0.047-0.058 0.080-0.128 0.099-0.21h0.43c-0.015 0.148-0.066 0.282-0.145 0.396l0.002-0.003c-0.082 0.116-0.19 0.209-0.316 0.27l-0.005 0.002c-0.133 0.066-0.289 0.099-0.469 0.099zM20.578 16.213v1.348h-0.442v-3.027h0.436v1.127h0.028c0.053-0.122 0.134-0.22 0.244-0.291s0.252-0.108 0.429-0.108c0.156 0 0.292 0.032 0.408 0.096 0.117 0.064 0.208 0.159 0.272 0.287 0.065 0.126 0.098 0.284 0.098 0.473v1.444h-0.442v-1.391c0-0.166-0.043-0.296-0.128-0.387-0.086-0.093-0.205-0.139-0.358-0.139-0.003-0-0.007-0-0.010-0-0.099 0-0.192 0.025-0.274 0.068l0.003-0.002c-0.082 0.044-0.146 0.109-0.194 0.195-0.046 0.085-0.069 0.187-0.069 0.308zM23.619 17.607c-0.224 0-0.416-0.048-0.578-0.143-0.161-0.098-0.288-0.236-0.37-0.401l-0.003-0.006c-0.087-0.175-0.13-0.381-0.13-0.616 0-0.233 0.043-0.438 0.13-0.615 0.083-0.172 0.209-0.313 0.363-0.413l0.004-0.002c0.158-0.1 0.342-0.149 0.553-0.149 0.128 0 0.252 0.021 0.373 0.063s0.228 0.109 0.324 0.2c0.095 0.091 0.171 0.208 0.226 0.353 0.055 0.144 0.083 0.319 0.083 0.525v0.157h-1.805v-0.331h1.372c0-0.116-0.024-0.219-0.071-0.309s-0.114-0.162-0.197-0.213l-0.002-0.001c-0.085-0.052-0.184-0.079-0.299-0.079-0.124 0-0.233 0.031-0.325 0.092-0.090 0.059-0.163 0.139-0.211 0.233l-0.002 0.003c-0.049 0.097-0.074 0.201-0.074 0.315v0.259c0 0.152 0.027 0.281 0.080 0.387s0.13 0.188 0.226 0.244c0.096 0.055 0.209 0.083 0.338 0.083 0.084 0 0.16-0.012 0.229-0.036s0.129-0.061 0.179-0.109c0.050-0.048 0.089-0.108 0.116-0.179l0.418 0.075c-0.034 0.123-0.094 0.231-0.181 0.324-0.088 0.093-0.197 0.166-0.318 0.212l-0.006 0.002c-0.129 0.050-0.276 0.075-0.442 0.075zM25.526 16.213v1.348h-0.442v-2.27h0.424v0.369h0.028c0.052-0.12 0.134-0.217 0.245-0.29 0.112-0.073 0.254-0.109 0.424-0.109 0.155 0 0.29 0.033 0.406 0.098 0.116 0.064 0.207 0.16 0.271 0.287s0.096 0.284 0.096 0.472v1.444h-0.442v-1.391c0-0.164-0.043-0.293-0.129-0.386-0.086-0.094-0.203-0.14-0.353-0.14-0.102 0-0.194 0.022-0.273 0.066s-0.142 0.109-0.188 0.195c-0.046 0.085-0.068 0.187-0.068 0.308z"></path>
        </symbol>
        <symbol id="icon-petrol-c" viewBox="0 0 32 32">
            <path d="M6.459 9.541h19.083c3.567 0 6.459 2.892 6.459 6.459s-2.892 6.459-6.459 6.459h-19.083c-3.567 0-6.459-2.892-6.459-6.459s2.892-6.459 6.459-6.459z"></path>
            <path d="M6.385 13.982c0-0 0-0 0-0 0-0.101 0.082-0.183 0.183-0.183 0 0 0 0 0 0h1.835c0 0 0 0 0 0 0.101 0 0.183 0.082 0.183 0.183 0 0 0 0 0 0v-0 1.835c0 0 0 0 0 0 0 0.101-0.082 0.183-0.183 0.183-0 0-0 0-0 0h-1.835c-0 0-0 0-0 0-0.101 0-0.183-0.082-0.183-0.183 0-0 0-0 0-0v0-1.835z"></path>
            <path d="M5.651 13.798c0-0.405 0.329-0.734 0.734-0.734v0h2.202c0.405 0 0.734 0.329 0.734 0.734v0 2.936c0.405 0 0.734 0.329 0.734 0.734v0 0.183c0 0.101 0.082 0.183 0.184 0.183s0.184-0.082 0.184-0.183v0-1.651h-0.184c-0 0-0 0-0 0-0.101 0-0.183-0.082-0.183-0.183 0-0 0-0 0-0v0-1.147c0-0.101 0.082-0.184 0.184-0.184v0h0.549c-0.004-0.175-0.019-0.328-0.074-0.449-0.030-0.071-0.080-0.128-0.143-0.167l-0.002-0.001c-0.068-0.040-0.17-0.072-0.33-0.072-0.101 0-0.184-0.082-0.184-0.184s0.082-0.184 0.184-0.184v0c0.207-0.001 0.38 0.040 0.518 0.123 0.141 0.084 0.232 0.202 0.291 0.333 0.109 0.24 0.108 0.538 0.108 0.764v1.165c0 0 0 0 0 0 0 0.101-0.082 0.184-0.184 0.184h-0.184v1.651c0 0.304-0.246 0.55-0.55 0.55s-0.55-0.246-0.55-0.55v0-0.183c0-0.203-0.164-0.367-0.367-0.367v0 1.468h0.184c0.101 0 0.184 0.082 0.184 0.183s-0.082 0.183-0.184 0.183v0h-4.037c-0.101 0-0.183-0.082-0.183-0.183s0.082-0.183 0.184-0.183v0h0.184v-4.771zM8.954 13.798c0-0.203-0.164-0.367-0.367-0.367v0h-2.202c-0.203 0-0.367 0.164-0.367 0.367v0 4.771h2.936v-4.771z"></path>
            <path d="M13.892 17.761v-3.416h1.217c0.266 0 0.486 0.048 0.661 0.145s0.305 0.229 0.392 0.397c0.087 0.167 0.13 0.355 0.13 0.564 0 0.21-0.044 0.399-0.132 0.567-0.087 0.167-0.218 0.299-0.393 0.397-0.175 0.097-0.394 0.145-0.659 0.145h-0.837v-0.437h0.791c0.168 0 0.304-0.029 0.409-0.087s0.181-0.139 0.23-0.24c0.046-0.097 0.074-0.211 0.074-0.331 0-0.005-0-0.010-0-0.015v0.001c0-0.129-0.025-0.244-0.073-0.344-0.051-0.102-0.131-0.183-0.229-0.234l-0.003-0.001c-0.104-0.057-0.242-0.085-0.414-0.085h-0.647v2.974h-0.515zM17.928 17.813c-0.252 0-0.47-0.054-0.652-0.162-0.181-0.11-0.325-0.266-0.418-0.452l-0.003-0.006c-0.098-0.198-0.147-0.43-0.147-0.695 0-0.262 0.049-0.494 0.147-0.694 0.094-0.194 0.236-0.353 0.41-0.466l0.004-0.003c0.178-0.112 0.386-0.168 0.624-0.168 0.145 0 0.285 0.024 0.42 0.072s0.257 0.123 0.365 0.225c0.108 0.102 0.193 0.235 0.255 0.398 0.062 0.162 0.093 0.36 0.093 0.592v0.177h-2.037v-0.374h1.548c0-0.131-0.026-0.247-0.080-0.349-0.052-0.101-0.129-0.183-0.223-0.24l-0.003-0.002c-0.095-0.059-0.208-0.089-0.337-0.089-0.14 0-0.262 0.035-0.367 0.104-0.102 0.067-0.183 0.157-0.238 0.263l-0.002 0.004c-0.056 0.109-0.083 0.227-0.083 0.355v0.292c0 0.171 0.030 0.317 0.090 0.437s0.146 0.212 0.255 0.275c0.109 0.062 0.236 0.093 0.382 0.093 0.095 0 0.181-0.014 0.259-0.040s0.145-0.069 0.202-0.123c0.057-0.055 0.1-0.122 0.13-0.202l0.472 0.085c-0.038 0.139-0.106 0.261-0.203 0.365-0.1 0.105-0.222 0.187-0.359 0.24l-0.007 0.002c-0.146 0.057-0.312 0.085-0.498 0.085zM20.777 15.199v0.4h-1.399v-0.4h1.399zM19.753 14.586h0.499v2.424c0 0.097 0.015 0.169 0.043 0.218 0.025 0.044 0.064 0.078 0.11 0.098l0.002 0.001c0.047 0.017 0.097 0.025 0.152 0.025 0.040 0 0.075-0.003 0.105-0.008s0.053-0.010 0.070-0.014l0.090 0.412c-0.034 0.013-0.075 0.024-0.118 0.033l-0.005 0.001c-0.054 0.012-0.12 0.019-0.201 0.020-0.007 0-0.015 0-0.022 0-0.125 0-0.243-0.026-0.35-0.073l0.006 0.002c-0.114-0.049-0.207-0.127-0.274-0.225l-0.001-0.002c-0.070-0.102-0.105-0.231-0.105-0.385v-2.527zM21.328 17.761v-2.562h0.482v0.407h0.026c0.047-0.138 0.129-0.246 0.247-0.325 0.119-0.080 0.253-0.12 0.404-0.12 0.075 0 0.149 0.005 0.221 0.013l-0.009-0.001v0.477c-0.029-0.007-0.066-0.014-0.102-0.018l-0.004-0c-0.046-0.007-0.099-0.012-0.154-0.012h-0c-0.118 0-0.223 0.025-0.315 0.075-0.178 0.096-0.297 0.28-0.297 0.493 0 0.003 0 0.006 0 0.009v-0 1.565h-0.499zM24.119 17.813c-0.24 0-0.45-0.055-0.629-0.165-0.18-0.112-0.322-0.269-0.414-0.456l-0.003-0.007c-0.099-0.198-0.149-0.429-0.149-0.694s0.049-0.498 0.149-0.697c0.094-0.194 0.237-0.351 0.412-0.461l0.005-0.003c0.179-0.11 0.389-0.165 0.629-0.165s0.45 0.055 0.629 0.165c0.179 0.11 0.318 0.264 0.417 0.464s0.149 0.431 0.149 0.697c0 0.265-0.049 0.496-0.148 0.694-0.095 0.193-0.237 0.35-0.412 0.459l-0.005 0.003c-0.179 0.11-0.389 0.165-0.629 0.165zM24.12 17.395c0.156 0 0.285-0.041 0.387-0.123s0.178-0.192 0.227-0.329c0.050-0.137 0.075-0.287 0.075-0.452 0-0.163-0.025-0.314-0.075-0.45-0.045-0.133-0.124-0.246-0.226-0.331l-0.001-0.001c-0.102-0.083-0.231-0.125-0.387-0.125-0.157 0-0.287 0.042-0.39 0.125-0.103 0.086-0.182 0.198-0.227 0.326l-0.002 0.005c-0.049 0.137-0.073 0.287-0.073 0.451s0.024 0.315 0.073 0.452c0.050 0.137 0.126 0.246 0.228 0.329 0.104 0.082 0.234 0.123 0.39 0.123zM26.368 14.345v3.416h-0.498v-3.416h0.498z"></path>
        </symbol>
        <symbol id="icon-ac-c" viewBox="0 0 32 32">
            <path d="M8.092 7.908h15.816c4.469 0 8.092 3.623 8.092 8.092s-3.623 8.092-8.092 8.092h-15.816c-4.469 0-8.092-3.623-8.092-8.092s3.623-8.092 8.092-8.092z"></path>
            <path d="M12.368 13.241c-0.635 0-1.149 0.515-1.149 1.149v0c0 0.127-0.103 0.23-0.23 0.23s-0.23-0.103-0.23-0.23v0c0-0.889 0.72-1.609 1.609-1.609s1.609 0.72 1.609 1.609c0 0.889-0.72 1.609-1.609 1.609v0h-5.517c-0.127 0-0.23-0.103-0.23-0.23s0.103-0.23 0.23-0.23v0h5.517c0.635 0 1.149-0.515 1.149-1.149s-0.515-1.149-1.149-1.149v0zM9.149 13.701c-0.254 0-0.46 0.206-0.46 0.46v0c0 0.127-0.103 0.23-0.23 0.23s-0.23-0.103-0.23-0.23v0c0-0.508 0.412-0.92 0.92-0.92s0.92 0.412 0.92 0.92c0 0.508-0.412 0.92-0.92 0.92v0h-2.299c-0.127 0-0.23-0.103-0.23-0.23s0.103-0.23 0.23-0.23v0h2.299c0.254 0 0.46-0.206 0.46-0.46s-0.206-0.46-0.46-0.46v0zM6.621 16.69c0-0 0-0 0-0 0-0.127 0.103-0.23 0.23-0.23 0 0 0 0 0 0h4.617c0.762 0 1.379 0.618 1.379 1.379s-0.618 1.379-1.379 1.379c-0.762 0-1.379-0.618-1.379-1.379v0c0-0.127 0.103-0.23 0.23-0.23s0.23 0.103 0.23 0.23v0c0 0.508 0.412 0.92 0.92 0.92s0.92-0.412 0.92-0.92c0-0.508-0.412-0.92-0.92-0.92v0h-4.617c-0 0-0 0-0 0-0.127 0-0.23-0.103-0.23-0.23 0-0 0-0 0-0v0z"></path>
            <path d="M17.857 18.207h-0.685l1.54-4.28h0.746l1.54 4.28h-0.685l-1.21-3.503h-0.033l-1.212 3.503zM17.973 16.531h2.223v0.543h-2.223v-0.543zM24.97 15.319h-0.652c-0.045-0.263-0.188-0.486-0.388-0.636l-0.003-0.002c-0.099-0.074-0.21-0.129-0.332-0.167-0.113-0.036-0.243-0.056-0.378-0.056-0.003 0-0.006 0-0.009 0h0c-0.246 0-0.468 0.062-0.662 0.186-0.194 0.124-0.347 0.305-0.46 0.545-0.111 0.239-0.167 0.532-0.167 0.878 0 0.348 0.056 0.642 0.167 0.882 0.113 0.239 0.267 0.421 0.462 0.543s0.415 0.184 0.658 0.184c0.135 0 0.263-0.018 0.384-0.054 0.127-0.039 0.237-0.095 0.336-0.167l-0.003 0.002c0.203-0.149 0.346-0.369 0.394-0.623l0.001-0.006 0.652 0.002c-0.035 0.218-0.106 0.413-0.207 0.59l0.005-0.009c-0.101 0.178-0.229 0.329-0.38 0.453l-0.003 0.002c-0.154 0.127-0.332 0.225-0.531 0.295-0.189 0.066-0.406 0.105-0.632 0.105-0.007 0-0.014-0-0.021-0h0.001c-0.371 0-0.701-0.088-0.991-0.263s-0.518-0.43-0.685-0.758c-0.166-0.329-0.249-0.721-0.249-1.177s0.084-0.849 0.251-1.176c0.167-0.329 0.395-0.581 0.685-0.757 0.29-0.177 0.619-0.265 0.989-0.265 0.227 0 0.439 0.033 0.635 0.098 0.198 0.064 0.375 0.159 0.533 0.284 0.157 0.124 0.288 0.276 0.391 0.456 0.103 0.178 0.173 0.383 0.209 0.612z"></path>
        </symbol>
        <symbol id="icon-automatic-c" viewBox="0 0 32 32">
            <path d="M4.923 11.077h22.154c2.719 0 4.923 2.204 4.923 4.923s-2.204 4.923-4.923 4.923h-22.154c-2.719 0-4.923-2.204-4.923-4.923s2.204-4.923 4.923-4.923z"></path>
            <path d="M5.706 14.741c0-0.232 0.188-0.42 0.42-0.42v0h0.28c0.232 0 0.42 0.188 0.42 0.42v0 0.28c0 0.232-0.188 0.42-0.42 0.42v0 0.28h1.538c0 0 0 0 0 0 0.077 0 0.14 0.063 0.14 0.14 0 0 0 0 0 0v0 0.28c0 0.077-0.063 0.14-0.14 0.14s-0.14-0.063-0.14-0.14v0-0.14h-1.399v0.14c0 0.077-0.063 0.14-0.14 0.14s-0.14-0.063-0.14-0.14v0-0.14h-1.399v0.14c0 0.077-0.063 0.14-0.14 0.14s-0.14-0.063-0.14-0.14v0-0.28c0-0 0-0 0-0 0-0.077 0.063-0.14 0.14-0.14 0 0 0 0 0 0v0h1.538v-0.28c-0.232 0-0.42-0.188-0.42-0.42v0-0.28zM6.406 15.161c0 0 0 0 0 0 0.077 0 0.14-0.063 0.14-0.14 0-0 0-0 0-0v0-0.28c0-0 0-0 0-0 0-0.077-0.063-0.14-0.14-0.14-0 0-0 0-0 0v0h-0.28c-0 0-0 0-0 0-0.077 0-0.14 0.063-0.14 0.14 0 0 0 0 0 0v0 0.28c0 0 0 0 0 0 0 0.077 0.063 0.14 0.14 0.14 0 0 0 0 0 0v0h0.28zM4.028 16.979c0-0.232 0.188-0.42 0.42-0.42v0h0.28c0.232 0 0.42 0.188 0.42 0.42v0 0.28c0 0.232-0.188 0.42-0.42 0.42v0h-0.28c-0.232 0-0.42-0.188-0.42-0.42v0-0.28zM4.448 16.839c-0 0-0 0-0 0-0.077 0-0.14 0.063-0.14 0.14 0 0 0 0 0 0v0 0.28c0 0 0 0 0 0 0 0.077 0.063 0.14 0.14 0.14 0 0 0 0 0 0v0h0.28c0 0 0 0 0 0 0.077 0 0.14-0.063 0.14-0.14 0-0 0-0 0-0v0-0.28c0-0 0-0 0-0 0-0.077-0.063-0.14-0.14-0.14-0 0-0 0-0 0v0h-0.28zM5.706 16.979c0-0.232 0.188-0.42 0.42-0.42v0h0.28c0.232 0 0.42 0.188 0.42 0.42v0 0.28c0 0.232-0.188 0.42-0.42 0.42v0h-0.28c-0.232 0-0.42-0.188-0.42-0.42v0-0.28zM6.126 16.839c-0 0-0 0-0 0-0.077 0-0.14 0.063-0.14 0.14 0 0 0 0 0 0v0 0.28c0 0 0 0 0 0 0 0.077 0.063 0.14 0.14 0.14 0 0 0 0 0 0v0h0.28c0 0 0 0 0 0 0.077 0 0.14-0.063 0.14-0.14 0-0 0-0 0-0v0-0.28c0-0 0-0 0-0 0-0.077-0.063-0.14-0.14-0.14-0 0-0 0-0 0v0h-0.28zM7.385 16.979c0-0.232 0.188-0.42 0.42-0.42v0h0.28c0.232 0 0.42 0.188 0.42 0.42v0 0.28c0 0.232-0.188 0.42-0.42 0.42v0h-0.28c-0.232 0-0.42-0.188-0.42-0.42v0-0.28zM7.804 16.839c-0 0-0 0-0 0-0.077 0-0.14 0.063-0.14 0.14 0 0 0 0 0 0v0 0.28c0 0 0 0 0 0 0 0.077 0.063 0.14 0.14 0.14 0 0 0 0 0 0v0h0.28c0 0 0 0 0 0 0.077 0 0.14-0.063 0.14-0.14 0-0 0-0 0-0v0-0.28c0-0 0-0 0-0 0-0.077-0.063-0.14-0.14-0.14-0 0-0 0-0 0v0h-0.28z"></path>
            <path d="M10.858 17.343h-0.417l0.937-2.604h0.454l0.937 2.604h-0.417l-0.736-2.131h-0.020l-0.738 2.131zM10.927 16.323h1.353v0.331h-1.353v-0.331zM14.351 16.533v-1.143h0.381v1.953h-0.374v-0.338h-0.020c-0.045 0.104-0.117 0.191-0.216 0.26s-0.221 0.103-0.367 0.103c-0.126 0-0.237-0.027-0.333-0.083s-0.171-0.139-0.226-0.248c-0.054-0.109-0.081-0.244-0.081-0.405v-1.242h0.38v1.196c0 0.133 0.037 0.239 0.111 0.318s0.17 0.119 0.287 0.119c0.071 0 0.142-0.018 0.213-0.054s0.13-0.090 0.177-0.161c0.047-0.072 0.071-0.164 0.070-0.275zM16.155 15.39v0.305h-1.067v-0.305h1.067zM15.374 14.922h0.38v1.848c0 0.074 0.011 0.129 0.033 0.166 0.019 0.034 0.049 0.060 0.084 0.075l0.001 0c0.036 0.013 0.074 0.019 0.116 0.019 0.031 0 0.057-0.002 0.080-0.006s0.041-0.008 0.053-0.010l0.069 0.314c-0.026 0.010-0.058 0.018-0.090 0.025l-0.004 0.001c-0.041 0.009-0.092 0.014-0.153 0.015-0.005 0-0.011 0-0.017 0-0.095 0-0.185-0.020-0.267-0.055l0.004 0.002c-0.087-0.038-0.158-0.097-0.209-0.171l-0.001-0.002c-0.053-0.078-0.080-0.176-0.080-0.294v-1.926zM17.377 17.382c-0.183 0-0.343-0.042-0.479-0.126-0.137-0.086-0.246-0.205-0.316-0.347l-0.002-0.005c-0.076-0.151-0.113-0.327-0.113-0.529s0.038-0.38 0.113-0.531c0.072-0.148 0.181-0.268 0.314-0.351l0.004-0.002c0.137-0.084 0.296-0.126 0.479-0.126s0.343 0.042 0.479 0.126c0.137 0.084 0.242 0.202 0.318 0.354s0.113 0.329 0.113 0.531c0 0.202-0.038 0.378-0.113 0.529-0.072 0.147-0.181 0.267-0.314 0.35l-0.004 0.002c-0.137 0.084-0.296 0.126-0.48 0.126zM17.378 17.063c0.119 0 0.217-0.031 0.295-0.094s0.136-0.146 0.173-0.251c0.038-0.104 0.057-0.219 0.057-0.345 0-0.124-0.019-0.239-0.057-0.343-0.035-0.102-0.094-0.187-0.172-0.252l-0.001-0.001c-0.078-0.064-0.176-0.096-0.295-0.096s-0.219 0.032-0.298 0.096c-0.079 0.066-0.139 0.151-0.173 0.249l-0.001 0.004c-0.037 0.104-0.056 0.219-0.056 0.343s0.019 0.24 0.056 0.345c0.038 0.104 0.096 0.188 0.174 0.25 0.079 0.063 0.178 0.094 0.298 0.094zM18.712 17.343v-1.953h0.365v0.318h0.024c0.041-0.107 0.107-0.192 0.2-0.252s0.203-0.092 0.332-0.092c0.131 0 0.24 0.031 0.328 0.092s0.155 0.145 0.197 0.252h0.021c0.047-0.104 0.121-0.187 0.222-0.249s0.223-0.094 0.364-0.094c0.177 0 0.322 0.056 0.434 0.166s0.169 0.279 0.169 0.502v1.31h-0.38v-1.274c0-0.132-0.036-0.228-0.108-0.287-0.067-0.056-0.154-0.089-0.249-0.089-0.003 0-0.006 0-0.009 0h0c-0.124 0-0.22 0.038-0.289 0.114s-0.103 0.173-0.103 0.291v1.245h-0.379v-1.298c0-0.106-0.033-0.191-0.099-0.256s-0.152-0.097-0.258-0.097c-0.072 0-0.139 0.019-0.2 0.057-0.060 0.037-0.109 0.089-0.146 0.156-0.035 0.065-0.055 0.141-0.055 0.223 0 0.004 0 0.007 0 0.011v-0.001 1.204h-0.38zM22.445 17.386c-0.003 0-0.008 0-0.012 0-0.117 0-0.229-0.025-0.329-0.071l0.005 0.002c-0.098-0.045-0.179-0.114-0.237-0.2l-0.001-0.002c-0.058-0.088-0.086-0.196-0.086-0.324 0-0.11 0.021-0.201 0.064-0.272s0.1-0.128 0.172-0.169c0.070-0.040 0.15-0.073 0.236-0.093l0.006-0.001c0.089-0.021 0.18-0.037 0.272-0.048l0.285-0.033c0.073-0.009 0.126-0.024 0.159-0.044s0.049-0.054 0.049-0.099v-0.009c0-0.111-0.031-0.197-0.094-0.258s-0.154-0.092-0.277-0.092c-0.128 0-0.229 0.028-0.303 0.085s-0.123 0.119-0.151 0.187l-0.357-0.081c0.043-0.119 0.104-0.214 0.186-0.287s0.177-0.127 0.284-0.16c0.107-0.034 0.219-0.051 0.337-0.051 0.078 0 0.161 0.009 0.248 0.028s0.171 0.051 0.247 0.099c0.077 0.048 0.14 0.117 0.189 0.207s0.074 0.205 0.074 0.347v1.297h-0.371v-0.267h-0.015c-0.025 0.049-0.062 0.097-0.111 0.145-0.053 0.050-0.116 0.090-0.185 0.117l-0.004 0.001c-0.077 0.031-0.17 0.047-0.277 0.047zM22.527 17.081c0.105 0 0.195-0.021 0.27-0.062s0.133-0.096 0.172-0.163c0.040-0.068 0.060-0.14 0.060-0.218v-0.252c-0.014 0.013-0.040 0.026-0.079 0.038-0.035 0.010-0.079 0.021-0.124 0.028l-0.007 0.001c-0.049 0.008-0.097 0.015-0.144 0.022s-0.085 0.011-0.117 0.015c-0.074 0.009-0.141 0.025-0.202 0.047-0.057 0.020-0.106 0.053-0.145 0.095l-0 0c-0.036 0.041-0.054 0.095-0.054 0.163 0 0.094 0.035 0.165 0.105 0.213s0.158 0.071 0.266 0.071zM24.826 15.39v0.305h-1.067v-0.305h1.067zM24.046 14.922h0.38v1.848c0 0.074 0.011 0.129 0.033 0.166 0.019 0.034 0.049 0.060 0.084 0.075l0.001 0c0.036 0.013 0.074 0.019 0.116 0.019 0.031 0 0.057-0.002 0.080-0.006s0.041-0.008 0.053-0.010l0.069 0.314c-0.026 0.010-0.058 0.018-0.090 0.025l-0.004 0.001c-0.045 0.010-0.097 0.015-0.15 0.015-0.001 0-0.002 0-0.003 0h0c-0.005 0-0.011 0-0.017 0-0.095 0-0.185-0.020-0.267-0.055l0.004 0.002c-0.087-0.037-0.158-0.097-0.209-0.171l-0.001-0.002c-0.053-0.078-0.080-0.176-0.080-0.294v-1.926zM25.247 17.343v-1.953h0.38v1.953h-0.38zM25.439 15.088c-0.001 0-0.003 0-0.005 0-0.064 0-0.123-0.025-0.166-0.066l0 0c-0.043-0.039-0.070-0.096-0.070-0.159 0-0.001 0-0.001 0-0.002v0c0-0.001-0-0.002-0-0.003 0-0.062 0.027-0.118 0.070-0.157l0-0c0.047-0.045 0.104-0.067 0.171-0.067s0.122 0.022 0.169 0.067c0.044 0.039 0.071 0.095 0.071 0.158 0 0.001 0 0.002 0 0.002v-0c0 0 0 0.001 0 0.001 0 0.063-0.027 0.12-0.071 0.159l-0 0c-0.047 0.044-0.103 0.066-0.169 0.066zM26.961 17.382c-0.189 0-0.352-0.043-0.488-0.128-0.136-0.087-0.242-0.209-0.31-0.352l-0.002-0.005c-0.073-0.152-0.109-0.326-0.109-0.521 0-0.198 0.037-0.373 0.112-0.525 0.071-0.149 0.179-0.27 0.312-0.355l0.003-0.002c0.136-0.086 0.295-0.128 0.479-0.128 0.148 0 0.281 0.028 0.397 0.083 0.116 0.054 0.21 0.13 0.281 0.229s0.115 0.213 0.128 0.345h-0.37c-0.022-0.095-0.071-0.176-0.139-0.236l-0-0c-0.072-0.066-0.169-0.099-0.29-0.099-0.106 0-0.199 0.028-0.279 0.084s-0.14 0.134-0.184 0.237c-0.044 0.102-0.066 0.222-0.066 0.361 0 0.143 0.022 0.265 0.065 0.369s0.104 0.183 0.183 0.24c0.080 0.057 0.173 0.085 0.281 0.085 0.072 0 0.137-0.013 0.196-0.039 0.059-0.027 0.109-0.066 0.149-0.116s0.069-0.11 0.085-0.181h0.37c-0.013 0.128-0.057 0.243-0.125 0.34l0.002-0.002c-0.070 0.1-0.163 0.18-0.272 0.232l-0.004 0.002c-0.114 0.057-0.249 0.085-0.403 0.085z"></path>
        </symbol>
        <symbol id="icon-water-c" viewBox="0 0 32 32">
            <path d="M6.982 9.018h18.036c3.856 0 6.982 3.126 6.982 6.982s-3.126 6.982-6.982 6.982h-18.036c-3.856 0-6.982-3.126-6.982-6.982s3.126-6.982 6.982-6.982z"></path>
            <path d="M9.782 16.727c0 1.004-0.632 1.636-1.636 1.636s-1.636-0.632-1.636-1.636c0-1.078 1.173-2.532 1.533-2.953 0.025-0.029 0.062-0.047 0.103-0.047s0.078 0.018 0.103 0.047l0 0c0.36 0.421 1.533 1.876 1.533 2.953z"></path>
            <path d="M9.146 16.818c0 0.452-0.366 0.818-0.818 0.818-0 0-0 0-0 0h0"></path>
            <path d="M14.521 17.745l-0.938-3.385h0.537l0.66 2.621h0.031l0.686-2.621h0.532l0.686 2.623h0.031l0.658-2.623h0.539l-0.941 3.385h-0.514l-0.713-2.536h-0.026l-0.713 2.536h-0.515zM18.857 17.802c-0.005 0-0.010 0-0.015 0-0.152 0-0.297-0.033-0.428-0.092l0.006 0.003c-0.128-0.059-0.232-0.149-0.307-0.26l-0.002-0.003c-0.075-0.115-0.112-0.255-0.112-0.422 0-0.143 0.027-0.261 0.083-0.354s0.129-0.166 0.223-0.22c0.091-0.052 0.195-0.094 0.306-0.121l0.008-0.002c0.116-0.028 0.233-0.049 0.353-0.063l0.37-0.043c0.095-0.012 0.163-0.031 0.207-0.058s0.065-0.070 0.065-0.129v-0.012c0-0.144-0.041-0.256-0.122-0.335s-0.201-0.119-0.361-0.119c-0.166 0-0.297 0.037-0.393 0.111-0.095 0.073-0.16 0.154-0.197 0.243l-0.464-0.106c0.055-0.154 0.135-0.279 0.241-0.374 0.107-0.096 0.23-0.165 0.368-0.208s0.285-0.066 0.438-0.066c0.101 0 0.209 0.012 0.322 0.036 0.115 0.023 0.221 0.066 0.321 0.129 0.1 0.063 0.182 0.153 0.246 0.269s0.096 0.266 0.096 0.452v1.686h-0.483v-0.347h-0.020c-0.032 0.064-0.080 0.127-0.144 0.189s-0.146 0.113-0.246 0.154-0.221 0.061-0.36 0.061zM18.965 17.405c0.137 0 0.253-0.027 0.35-0.081 0.093-0.050 0.169-0.122 0.222-0.209l0.001-0.003c0.052-0.088 0.078-0.182 0.078-0.283v-0.327c-0.017 0.017-0.052 0.034-0.102 0.049-0.049 0.015-0.106 0.027-0.17 0.038s-0.126 0.020-0.187 0.028c-0.061 0.008-0.111 0.015-0.152 0.020-0.096 0.012-0.183 0.033-0.263 0.061s-0.141 0.070-0.189 0.124c-0.047 0.053-0.070 0.123-0.070 0.212 0 0.122 0.045 0.215 0.136 0.278s0.206 0.093 0.346 0.093zM21.954 15.207v0.396h-1.387v-0.396h1.387zM20.939 14.598h0.495v2.402c0 0.096 0.014 0.168 0.043 0.216 0.025 0.044 0.063 0.078 0.109 0.097l0.001 0.001c0.047 0.017 0.097 0.025 0.151 0.025 0.040 0 0.074-0.003 0.104-0.008l0.069-0.013 0.089 0.408c-0.034 0.013-0.075 0.024-0.117 0.032l-0.005 0.001c-0.059 0.013-0.126 0.020-0.195 0.020-0.001 0-0.002 0-0.004 0h0c-0.007 0-0.014 0-0.022 0-0.123 0-0.241-0.026-0.347-0.072l0.006 0.002c-0.113-0.049-0.205-0.126-0.271-0.223l-0.001-0.002c-0.069-0.101-0.104-0.229-0.104-0.382v-2.504zM23.567 17.797c-0.25 0-0.465-0.054-0.646-0.16-0.18-0.109-0.322-0.264-0.414-0.448l-0.003-0.006c-0.097-0.196-0.145-0.426-0.145-0.689 0-0.26 0.049-0.489 0.145-0.688 0.093-0.193 0.233-0.35 0.406-0.462l0.004-0.003c0.176-0.111 0.382-0.167 0.618-0.167 0.143 0 0.282 0.024 0.417 0.071s0.255 0.122 0.362 0.223c0.107 0.101 0.191 0.233 0.253 0.395 0.062 0.161 0.093 0.357 0.093 0.587v0.175h-2.018v-0.37h1.534c0-0.13-0.026-0.245-0.079-0.346s-0.128-0.181-0.221-0.238l-0.003-0.002c-0.095-0.058-0.206-0.088-0.334-0.088-0.139 0-0.26 0.034-0.364 0.103-0.101 0.066-0.182 0.156-0.236 0.261l-0.002 0.004c-0.055 0.108-0.083 0.225-0.083 0.352v0.289c0 0.17 0.030 0.314 0.089 0.433 0.061 0.119 0.145 0.21 0.253 0.273 0.108 0.062 0.234 0.093 0.378 0.093 0.094 0 0.179-0.013 0.257-0.040s0.144-0.068 0.2-0.122c0.056-0.054 0.099-0.121 0.129-0.2l0.468 0.084c-0.038 0.138-0.105 0.258-0.202 0.362-0.099 0.104-0.22 0.185-0.355 0.237l-0.007 0.002c-0.145 0.056-0.309 0.084-0.495 0.084zM25.205 17.745v-2.539h0.478v0.403h0.026c0.047-0.137 0.128-0.244 0.244-0.322 0.118-0.079 0.251-0.119 0.4-0.119 0.075 0 0.148 0.005 0.219 0.012l-0.009-0.001v0.473c-0.029-0.007-0.065-0.014-0.102-0.018l-0.004-0c-0.046-0.007-0.098-0.012-0.152-0.012h-0c-0.117 0-0.221 0.025-0.312 0.074-0.176 0.095-0.294 0.278-0.294 0.489 0 0.003 0 0.006 0 0.009v-0 1.551h-0.494z"></path>
        </symbol>
        <symbol id="icon-water" viewBox="0 0 32 32">
            <path d="M25 20c0 5.523-3.477 9-9 9s-9-3.477-9-9c0-5.927 6.452-13.928 8.43-16.243 0.138-0.161 0.342-0.263 0.57-0.263s0.432 0.101 0.569 0.262l0.001 0.001c1.978 2.315 8.43 10.316 8.43 16.243z"></path>
            <path d="M21.5 20.5c0 2.485-2.015 4.5-4.5 4.5v0"></path>
        </symbol>
        <symbol id="icon-bi_grid-3x3" viewBox="0 0 32 32">
            <path d="M8 4v4h-4v-4h4zM10 28v-4c0-1.105-0.895-2-2-2v0h-4c-1.105 0-2 0.895-2 2v0 4c0 1.105 0.895 2 2 2v0h4c1.105 0 2-0.895 2-2v0zM10 18v-4c0-1.105-0.895-2-2-2v0h-4c-1.105 0-2 0.895-2 2v0 4c0 1.105 0.895 2 2 2v0h4c1.105 0 2-0.895 2-2v0zM10 8v-4c0-1.105-0.895-2-2-2v0h-4c-1.105 0-2 0.895-2 2v0 4c0 1.105 0.895 2 2 2v0h4c1.105 0 2-0.895 2-2v0zM20 28v-4c0-1.105-0.895-2-2-2v0h-4c-1.105 0-2 0.895-2 2v0 4c0 1.105 0.895 2 2 2v0h4c1.105 0 2-0.895 2-2v0zM20 18v-4c0-1.105-0.895-2-2-2v0h-4c-1.105 0-2 0.895-2 2v0 4c0 1.105 0.895 2 2 2v0h4c1.105 0 2-0.895 2-2v0zM20 8v-4c0-1.105-0.895-2-2-2v0h-4c-1.105 0-2 0.895-2 2v0 4c0 1.105 0.895 2 2 2v0h4c1.105 0 2-0.895 2-2v0zM18 4v4h-4v-4h4zM28 4v4h-4v-4h4zM8 14v4h-4v-4h4zM18 14v4h-4v-4h4zM28 14h-4v4h4v-4zM8 24v4h-4v-4h4zM18 24v4h-4v-4h4zM28 24v4h-4v-4h4zM24 2c-1.105 0-2 0.895-2 2v0 4c0 1.105 0.895 2 2 2v0h4c1.105 0 2-0.895 2-2v0-4c0-1.105-0.895-2-2-2v0h-4zM22 14c0-1.105 0.895-2 2-2v0h4c1.105 0 2 0.895 2 2v0 4c0 1.105-0.895 2-2 2v0h-4c-1.105 0-2-0.895-2-2v0-4zM24 22c-1.105 0-2 0.895-2 2v0 4c0 1.105 0.895 2 2 2v0h4c1.105 0 2-0.895 2-2v0-4c0-1.105-0.895-2-2-2v0h-4z"></path>
        </symbol>
        <symbol id="icon-bi_grid-2x2" viewBox="0 0 32 32">
            <path d="M2 5c0-1.657 1.343-3 3-3v0h6c1.657 0 3 1.343 3 3v0 6c0 1.657-1.343 3-3 3v0h-6c-1.657 0-3-1.343-3-3v0-6zM5 4c-0.552 0-1 0.448-1 1v0 6c0 0.552 0.448 1 1 1v0h6c0.552 0 1-0.448 1-1v0-6c0-0.552-0.448-1-1-1v0h-6zM18 5c0-1.657 1.343-3 3-3v0h6c1.657 0 3 1.343 3 3v0 6c0 1.657-1.343 3-3 3v0h-6c-1.657 0-3-1.343-3-3v0-6zM21 4c-0.552 0-1 0.448-1 1v0 6c0 0.552 0.448 1 1 1v0h6c0.552 0 1-0.448 1-1v0-6c0-0.552-0.448-1-1-1v0h-6zM2 21c0-1.657 1.343-3 3-3v0h6c1.657 0 3 1.343 3 3v0 6c0 1.657-1.343 3-3 3v0h-6c-1.657 0-3-1.343-3-3v0-6zM5 20c-0.552 0-1 0.448-1 1v0 6c0 0.552 0.448 1 1 1v0h6c0.552 0 1-0.448 1-1v0-6c0-0.552-0.448-1-1-1v0h-6zM18 21c0-1.657 1.343-3 3-3v0h6c1.657 0 3 1.343 3 3v0 6c0 1.657-1.343 3-3 3v0h-6c-1.657 0-3-1.343-3-3v0-6zM21 20c-0.552 0-1 0.448-1 1v0 6c0 0.552 0.448 1 1 1v0h6c0.552 0 1-0.448 1-1v0-6c0-0.552-0.448-1-1-1v0h-6z"></path>
        </symbol>
        <symbol id="icon-bi_grid-1x2" viewBox="0 0 32 32">
            <path d="M12 2h-10v28h10v-28zM30 2h-10v10h10v-10zM30 20v10h-10v-10h10zM0 2c0-1.105 0.895-2 2-2v0h10c1.105 0 2 0.895 2 2v0 28c0 1.105-0.895 2-2 2v0h-10c-1.105 0-2-0.895-2-2v0-28zM18 2c0-1.105 0.895-2 2-2v0h10c1.105 0 2 0.895 2 2v0 10c0 1.105-0.895 2-2 2v0h-10c-1.105 0-2-0.895-2-2v0-10zM20 18c-1.105 0-2 0.895-2 2v0 10c0 1.105 0.895 2 2 2v0h10c1.105 0 2-0.895 2-2v0-10c0-1.105-0.895-2-2-2v0h-10z"></path>
        </symbol>
        <symbol id="icon-wind" viewBox="0 0 32 32">
            <path d="M25 4c-2.761 0-5 2.239-5 5v0c0 0.552-0.448 1-1 1s-1-0.448-1-1v0c0-3.866 3.134-7 7-7s7 3.134 7 7c0 3.866-3.134 7-7 7v0h-24c-0.552 0-1-0.448-1-1s0.448-1 1-1v0h24c2.761 0 5-2.239 5-5s-2.239-5-5-5v0zM11 6c-1.105 0-2 0.895-2 2v0c0 0.552-0.448 1-1 1s-1-0.448-1-1v0c0-2.209 1.791-4 4-4s4 1.791 4 4c0 2.209-1.791 4-4 4v0h-10c-0.552 0-1-0.448-1-1s0.448-1 1-1v0h10c1.105 0 2-0.895 2-2s-0.895-2-2-2v0zM0 19c0-0.552 0.448-1 1-1v0h20.084c3.314 0 6 2.686 6 6s-2.686 6-6 6c-3.314 0-6-2.686-6-6v0c0-0.552 0.448-1 1-1s1 0.448 1 1v0c0 2.209 1.791 4 4 4s4-1.791 4-4c0-2.209-1.791-4-4-4v0h-20.084c-0.552 0-1-0.448-1-1v0z"></path>
        </symbol>
        <symbol id="icon-automatic" viewBox="0 0 32 32">
            <path d="M12 7c0-1.657 1.343-3 3-3v0h2c1.657 0 3 1.343 3 3v0 2c0 1.657-1.343 3-3 3v0 2h11c0.552 0 1 0.448 1 1v0 2c0 0.552-0.448 1-1 1s-1-0.448-1-1v0-1h-10v1c0 0.552-0.448 1-1 1s-1-0.448-1-1v0-1h-10v1c0 0.552-0.448 1-1 1s-1-0.448-1-1v0-2c0-0.552 0.448-1 1-1v0h11v-2c-1.657 0-3-1.343-3-3v0-2zM17 10c0.552 0 1-0.448 1-1v0-2c0-0.552-0.448-1-1-1v0h-2c-0.552 0-1 0.448-1 1v0 2c0 0.552 0.448 1 1 1v0h2zM0 23c0-1.657 1.343-3 3-3v0h2c1.657 0 3 1.343 3 3v0 2c0 1.657-1.343 3-3 3v0h-2c-1.657 0-3-1.343-3-3v0-2zM3 22c-0.552 0-1 0.448-1 1v0 2c0 0.552 0.448 1 1 1v0h2c0.552 0 1-0.448 1-1v0-2c0-0.552-0.448-1-1-1v0h-2zM12 23c0-1.657 1.343-3 3-3v0h2c1.657 0 3 1.343 3 3v0 2c0 1.657-1.343 3-3 3v0h-2c-1.657 0-3-1.343-3-3v0-2zM15 22c-0.552 0-1 0.448-1 1v0 2c0 0.552 0.448 1 1 1v0h2c0.552 0 1-0.448 1-1v0-2c0-0.552-0.448-1-1-1v0h-2zM24 23c0-1.657 1.343-3 3-3v0h2c1.657 0 3 1.343 3 3v0 2c0 1.657-1.343 3-3 3v0h-2c-1.657 0-3-1.343-3-3v0-2zM27 22c-0.552 0-1 0.448-1 1v0 2c0 0.552 0.448 1 1 1v0h2c0.552 0 1-0.448 1-1v0-2c0-0.552-0.448-1-1-1v0h-2z"></path>
        </symbol>
        <symbol id="icon-kitchen" viewBox="0 0 32 32">
            <path d="M1 12c-0.552 0.001-0.999 0.449-0.999 1.001 0 0.076 0.009 0.15 0.025 0.222l-0.001-0.007 3.304 14.868c0.514 2.257 2.503 3.915 4.88 3.916h11.584c2.377-0.001 4.366-1.659 4.874-3.882l0.006-0.034 0.262-1.18c0.332 0.065 0.713 0.102 1.103 0.102 3.314 0 6-2.686 6-6 0-2.782-1.893-5.121-4.461-5.801l-0.042-0.009 0.442-1.98c0.015-0.065 0.024-0.139 0.024-0.216 0-0.552-0.448-1-1-1h-26zM26 25c-0.212 0-0.423-0.017-0.632-0.050l1.734-7.796c1.682 0.499 2.889 2.030 2.889 3.844 0 2.206-1.785 3.996-3.99 4.002h-0.001zM5.28 27.65l-3.034-13.65h23.508l-3.034 13.65c-0.308 1.354-1.502 2.35-2.928 2.35h-11.584c-1.426-0-2.62-0.996-2.924-2.33l-0.004-0.020z"></path>
            <path d="M8.8 1.6l-0.006 0.008-0.028 0.038c-0.146 0.2-0.282 0.407-0.408 0.62-0.097 0.151-0.191 0.326-0.272 0.508l-0.010 0.026c-0.052 0.12-0.068 0.184-0.074 0.206v0.008c0.025 0.187 0.089 0.355 0.185 0.501l-0.003-0.005c0.15 0.266 0.356 0.544 0.616 0.89l0.020 0.024c0.236 0.316 0.52 0.694 0.74 1.086 0.224 0.4 0.44 0.91 0.44 1.49 0 0.376-0.13 0.736-0.238 0.988-0.132 0.303-0.267 0.558-0.419 0.801l0.015-0.025c-0.181 0.301-0.348 0.551-0.525 0.792l0.019-0.028-0.036 0.050-0.010 0.016-0.004 0.004c-0.184 0.245-0.474 0.401-0.801 0.401-0.552 0-1-0.448-1-1 0-0.226 0.075-0.434 0.201-0.602l-0.002 0.003 0.006-0.008 0.028-0.038c0.146-0.2 0.282-0.407 0.408-0.62 0.097-0.151 0.191-0.326 0.272-0.508l0.010-0.026c0.052-0.12 0.068-0.184 0.074-0.206-0.023-0.189-0.087-0.36-0.183-0.509l0.003 0.005c-0.204-0.339-0.408-0.63-0.63-0.905l0.012 0.015-0.020-0.024c-0.249-0.316-0.494-0.67-0.715-1.040l-0.025-0.046c-0.261-0.425-0.423-0.937-0.44-1.485l-0-0.005c0-0.376 0.13-0.736 0.238-0.988 0.118-0.276 0.268-0.548 0.404-0.776 0.159-0.261 0.328-0.516 0.506-0.764l0.050-0.070c0.184-0.245 0.474-0.401 0.801-0.401 0.552 0 1 0.448 1 1 0 0.226-0.075 0.434-0.201 0.602l0.002-0.003zM14.8 1.6l-0.006 0.008-0.028 0.038c-0.146 0.2-0.282 0.407-0.408 0.62-0.107 0.17-0.202 0.35-0.282 0.534-0.052 0.12-0.068 0.184-0.074 0.206v0.008c0.025 0.187 0.089 0.355 0.185 0.501l-0.003-0.005c0.15 0.266 0.356 0.544 0.616 0.89l0.020 0.024c0.236 0.316 0.52 0.694 0.74 1.086 0.224 0.4 0.44 0.91 0.44 1.49 0 0.376-0.13 0.736-0.238 0.988-0.116 0.268-0.25 0.528-0.404 0.776-0.181 0.301-0.348 0.55-0.525 0.791l0.019-0.027-0.036 0.050-0.010 0.016-0.004 0.004c-0.184 0.245-0.474 0.401-0.801 0.401-0.552 0-1-0.448-1-1 0-0.226 0.075-0.434 0.201-0.602l-0.002 0.003 0.006-0.008 0.028-0.038c0.146-0.2 0.282-0.407 0.408-0.62 0.107-0.17 0.202-0.35 0.282-0.534 0.052-0.12 0.068-0.184 0.074-0.206-0.023-0.189-0.087-0.36-0.183-0.509l0.003 0.005c-0.204-0.339-0.408-0.63-0.63-0.905l0.012 0.015-0.020-0.024c-0.27-0.345-0.517-0.708-0.74-1.086-0.261-0.425-0.423-0.937-0.44-1.485l-0-0.005c0-0.376 0.13-0.736 0.238-0.988 0.118-0.276 0.268-0.548 0.404-0.776 0.159-0.261 0.328-0.516 0.506-0.764l0.050-0.070c0.184-0.245 0.474-0.401 0.801-0.401 0.552 0 1 0.448 1 1 0 0.226-0.075 0.434-0.201 0.602l0.002-0.003zM20.8 1.6l-0.006 0.008-0.028 0.038c-0.145 0.2-0.282 0.407-0.408 0.62-0.107 0.17-0.202 0.35-0.282 0.534-0.052 0.12-0.068 0.184-0.074 0.206v0.008c0.025 0.187 0.089 0.355 0.185 0.501l-0.003-0.005c0.15 0.266 0.356 0.544 0.616 0.89l0.020 0.024c0.236 0.316 0.52 0.694 0.74 1.086 0.224 0.4 0.44 0.91 0.44 1.49 0 0.376-0.13 0.736-0.238 0.988-0.116 0.268-0.25 0.528-0.404 0.776-0.156 0.262-0.324 0.517-0.504 0.764l-0.038 0.050-0.010 0.016-0.004 0.004c-0.184 0.245-0.474 0.401-0.801 0.401-0.552 0-1-0.448-1-1 0-0.226 0.075-0.434 0.201-0.602l-0.002 0.003 0.006-0.008 0.028-0.038c0.145-0.2 0.282-0.407 0.408-0.62 0.107-0.17 0.202-0.35 0.282-0.534 0.052-0.12 0.068-0.184 0.074-0.206-0.023-0.189-0.087-0.36-0.183-0.509l0.003 0.005c-0.204-0.339-0.408-0.63-0.63-0.905l0.012 0.015-0.020-0.024c-0.27-0.345-0.517-0.708-0.74-1.086-0.261-0.425-0.423-0.937-0.44-1.485l-0-0.005c0-0.376 0.13-0.736 0.238-0.988 0.118-0.276 0.268-0.548 0.404-0.776 0.159-0.261 0.328-0.516 0.506-0.764l0.050-0.070c0.184-0.245 0.474-0.401 0.801-0.401 0.552 0 1 0.448 1 1 0 0.226-0.075 0.434-0.201 0.602l0.002-0.003z"></path>
        </symbol>
        <symbol id="icon-tv" viewBox="0 0 32 32">
            <path d="M0 8s0-4 4-4h24s4 0 4 4v12s0 4-4 4h-8c0 1.333 0.167 2.333 0.5 3h1.5c0.552 0 1 0.448 1 1s-0.448 1-1 1v0h-12c-0.552 0-1-0.448-1-1s0.448-1 1-1v0h1.5c0.333-0.667 0.5-1.667 0.5-3h-8s-4 0-4-4v-12zM2.796 6.29c-0.218 0.153-0.391 0.357-0.504 0.595l-0.004 0.009c-0.161 0.329-0.264 0.713-0.288 1.118l-0 0.008v11.98c0 0.65 0.156 1.004 0.29 1.204 0.14 0.208 0.341 0.377 0.604 0.508 0.338 0.162 0.703 0.259 1.076 0.286l0.050 0.002h23.98c0.65 0 1.004-0.156 1.204-0.29 0.218-0.153 0.391-0.357 0.504-0.595l0.004-0.009c0.162-0.338 0.259-0.703 0.286-1.076l0.002-0.050v-11.98c0-0.65-0.156-1.004-0.29-1.204-0.153-0.218-0.357-0.391-0.595-0.504l-0.009-0.004c-0.329-0.161-0.713-0.264-1.118-0.288l-0.008-0h-23.98c-0.65 0-1.004 0.156-1.204 0.29z"></path>
        </symbol>
        <symbol id="icon-yellow-star" viewBox="0 0 32 32">
            <path d="M15.116 1.676c0.171-0.319 0.503-0.532 0.884-0.532s0.713 0.213 0.881 0.527l0.003 0.005 3.778 7.158c0.144 0.27 0.401 0.464 0.706 0.519l0.006 0.001 7.976 1.38c0.473 0.085 0.827 0.494 0.827 0.985 0 0.27-0.107 0.515-0.281 0.695l0-0-5.64 5.804c-0.176 0.18-0.284 0.426-0.284 0.698 0 0.050 0.004 0.099 0.011 0.147l-0.001-0.005 1.152 8.010c0.006 0.043 0.010 0.092 0.010 0.142 0 0.552-0.448 1-1 1-0.16 0-0.312-0.038-0.446-0.105l0.006 0.003-7.264-3.572c-0.129-0.065-0.281-0.103-0.442-0.103s-0.313 0.038-0.448 0.106l0.006-0.003-7.26 3.572c-0.129 0.065-0.281 0.103-0.442 0.103-0.552 0-1-0.448-1-1 0-0.050 0.004-0.1 0.011-0.149l-0.001 0.005 1.152-8.010c0.006-0.043 0.010-0.092 0.010-0.142 0-0.272-0.108-0.518-0.284-0.698l-5.64-5.804c-0.174-0.18-0.281-0.425-0.281-0.695 0-0.491 0.354-0.9 0.821-0.984l0.006-0.001 7.976-1.38c0.312-0.056 0.57-0.249 0.711-0.515l0.003-0.005 3.778-7.158z"></path>
        </symbol>
        <symbol id="icon-empty-star" viewBox="0 0 32 32">
            <path d="M15.116 1.676c0.171-0.319 0.503-0.532 0.884-0.532s0.713 0.213 0.881 0.527l0.003 0.005 3.778 7.158c0.144 0.27 0.401 0.464 0.706 0.519l0.006 0.001 7.976 1.38c0.473 0.085 0.827 0.494 0.827 0.985 0 0.27-0.107 0.515-0.281 0.695l0-0-5.64 5.804c-0.176 0.18-0.284 0.426-0.284 0.698 0 0.050 0.004 0.099 0.011 0.147l-0.001-0.005 1.152 8.010c0.006 0.043 0.010 0.092 0.010 0.142 0 0.552-0.448 1-1 1-0.16 0-0.312-0.038-0.446-0.105l0.006 0.003-7.264-3.572c-0.129-0.065-0.281-0.103-0.442-0.103s-0.313 0.038-0.448 0.106l0.006-0.003-7.26 3.572c-0.129 0.065-0.281 0.103-0.442 0.103-0.552 0-1-0.448-1-1 0-0.050 0.004-0.1 0.011-0.149l-0.001 0.005 1.152-8.010c0.006-0.043 0.010-0.092 0.010-0.142 0-0.272-0.108-0.518-0.284-0.698l-5.64-5.804c-0.174-0.18-0.281-0.425-0.281-0.695 0-0.491 0.354-0.9 0.821-0.984l0.006-0.001 7.976-1.38c0.312-0.056 0.57-0.249 0.711-0.515l0.003-0.005 3.778-7.158z"></path>
        </symbol>
        <symbol id="icon-shower" viewBox="0 0 32 32">
            <path d="M8 29.5c0 0.828-0.672 1.5-1.5 1.5s-1.5-0.672-1.5-1.5v0c0-0.828 0.672-1.5 1.5-1.5s1.5 0.672 1.5 1.5v0zM10.5 24c-0.828 0-1.5 0.672-1.5 1.5s0.672 1.5 1.5 1.5v0c0.828 0 1.5-0.672 1.5-1.5s-0.672-1.5-1.5-1.5v0zM2.5 24c-0.828 0-1.5 0.672-1.5 1.5s0.672 1.5 1.5 1.5v0c0.828 0 1.5-0.672 1.5-1.5s-0.672-1.5-1.5-1.5v0zM6.5 20c-0.828 0-1.5 0.672-1.5 1.5s0.672 1.5 1.5 1.5v0c0.828 0 1.5-0.672 1.5-1.5s-0.672-1.5-1.5-1.5v0zM32 5c0 0.552-0.448 1-1 1v0h-3.586l-3.482 3.482-2.707 15.85c-0.165 0.952-0.985 1.667-1.972 1.667-0.552 0-1.052-0.224-1.414-0.585l-12.25-12.25c-0.362-0.362-0.587-0.862-0.587-1.415 0-0.989 0.718-1.81 1.661-1.971l0.012-0.002 15.842-2.708 3.776-3.775c0.181-0.181 0.431-0.293 0.707-0.293h4c0.552 0 1 0.448 1 1v0zM21.776 10.224l-14.776 2.526 12.25 12.25 2.526-14.776z"></path>
        </symbol>
        <symbol id="icon-refridgerator" viewBox="0 0 32 32">
            <path d="M23.667 9.333c0-0.552-0.448-1-1-1s-1 0.448-1 1v0 2.667c0 0.552 0.448 1 1 1s1-0.448 1-1v0-2.667zM23.667 18.667c0-0.552-0.448-1-1-1s-1 0.448-1 1v0 2.666c0 0.552 0.448 1 1 1s1-0.448 1-1v0-2.666z"></path>
            <path d="M16.075 1.667h-0.15c-2.45 0-4.392 0-5.91 0.204-1.563 0.21-2.828 0.653-3.827 1.65-0.997 0.999-1.44 2.264-1.65 3.827-0.205 1.52-0.205 3.46-0.205 5.91v4.15c0 2.45 0 4.392 0.204 5.91 0.211 1.563 0.654 2.829 1.651 3.827 0.613 0.612 1.325 1.015 2.145 1.284v0.904c0 0.552 0.448 1 1 1v0h1.334c0.552 0 1-0.448 1-1v0-0.394c1.209 0.061 2.62 0.061 4.258 0.061h0.15c1.64 0 3.049 0 4.258-0.061v0.394c0 0.552 0.448 1 1 1v0h1.334c0.552 0 1-0.448 1-1v0-0.904c0.82-0.269 1.533-0.672 2.145-1.284 0.997-0.998 1.44-2.264 1.65-3.826 0.205-1.52 0.205-3.46 0.205-5.911v-4.148c0-2.45 0-4.392-0.204-5.91-0.211-1.563-0.654-2.829-1.651-3.827-0.999-0.998-2.264-1.44-3.827-1.651-1.52-0.204-3.46-0.204-5.91-0.204zM7.603 4.936c0.564-0.564 1.337-0.903 2.678-1.083 1.371-0.184 3.176-0.186 5.719-0.186s4.35 0.002 5.72 0.186c1.34 0.18 2.113 0.519 2.677 1.083s0.903 1.337 1.083 2.679c0.184 1.37 0.187 3.176 0.187 5.718v1h-19.334v-1c0-2.542 0.003-4.348 0.187-5.72 0.18-1.34 0.519-2.113 1.083-2.677zM6.333 16.333h19.334v1c0 2.543-0.003 4.35-0.187 5.72-0.18 1.34-0.519 2.114-1.083 2.678s-1.337 0.902-2.678 1.082c-1.371 0.184-3.176 0.187-5.719 0.187s-4.348-0.003-5.72-0.187c-1.34-0.18-2.113-0.518-2.677-1.082s-0.903-1.338-1.083-2.679c-0.184-1.37-0.187-3.176-0.187-5.719v-1z"></path>
        </symbol>
        <symbol id="icon-microwave" viewBox="0 0 32 32">
            <path d="M26.667 5.333h-21.334c-1.473 0.001-2.666 1.194-2.666 2.667v0 14.667c0.001 1.472 1.194 2.665 2.666 2.666h21.334c1.472-0.001 2.665-1.194 2.666-2.666v-14.667c0-1.473-1.194-2.666-2.666-2.667h-0z"></path>
            <path d="M17.333 10.667h-8c-0.736 0-1.333 0.597-1.333 1.333v6.667c0 0.736 0.597 1.333 1.333 1.333h8c0.737 0 1.334-0.597 1.334-1.333v-6.667c0-0.736-0.597-1.333-1.334-1.333zM24 10.667v9.333M8 25.333v2.667M24 25.333v2.667"></path>
        </symbol>
        <symbol id="icon-red-heart" viewBox="0 0 32 32">
            <path d="M16 13.139l-1.788-3.577c-0.444-0.887-1.213-2.16-2.304-3.191-1.072-1.013-2.356-1.704-3.908-1.704-3.352 0-6 2.652-6 5.84 0 2.423 1.108 4.132 3.736 6.74 0.719 0.705 1.465 1.418 2.221 2.122l0.071 0.065c2.216 2.080 4.972 4.667 7.972 8.128 3-3.46 5.756-6.049 7.972-8.128 0.827-0.768 1.573-1.482 2.31-2.204l-0.018 0.018c2.628-2.608 3.736-4.319 3.736-6.74 0-3.188-2.648-5.84-6-5.84-1.555 0-2.836 0.691-3.908 1.704-1.091 1.031-1.86 2.304-2.304 3.191l-1.788 3.577zM16.784 29.723c-0.19 0.223-0.47 0.364-0.784 0.364s-0.594-0.141-0.783-0.362l-0.001-0.001c-3.203-3.804-6.1-6.524-8.487-8.763-4.129-3.876-6.729-6.316-6.729-10.453 0-4.329 3.58-7.84 8-7.84 3.2 0 5.439 2.1 6.808 4.016 0.52 0.731 0.916 1.432 1.192 1.984 0.347-0.691 0.745-1.353 1.192-1.984 1.369-1.917 3.608-4.016 6.808-4.016 4.42 0 8 3.511 8 7.84 0 4.137-2.6 6.576-6.729 10.453-2.387 2.24-5.284 4.963-8.487 8.763z"></path>
        </symbol>
        <symbol id="icon-black-heart" viewBox="0 0 32 32">
            <path d="M16 13.139l-1.788-3.577c-0.444-0.887-1.213-2.16-2.304-3.191-1.072-1.013-2.356-1.704-3.908-1.704-3.352 0-6 2.652-6 5.84 0 2.423 1.108 4.132 3.736 6.74 0.719 0.705 1.465 1.418 2.221 2.122l0.071 0.065c2.216 2.080 4.972 4.667 7.972 8.128 3-3.46 5.756-6.049 7.972-8.128 0.827-0.768 1.573-1.482 2.31-2.204l-0.018 0.018c2.628-2.608 3.736-4.319 3.736-6.74 0-3.188-2.648-5.84-6-5.84-1.555 0-2.836 0.691-3.908 1.704-1.091 1.031-1.86 2.304-2.304 3.191l-1.788 3.577zM16.784 29.723c-0.19 0.223-0.47 0.364-0.784 0.364s-0.594-0.141-0.783-0.362l-0.001-0.001c-3.203-3.804-6.1-6.524-8.487-8.763-4.129-3.876-6.729-6.316-6.729-10.453 0-4.329 3.58-7.84 8-7.84 3.2 0 5.439 2.1 6.808 4.016 0.52 0.731 0.916 1.432 1.192 1.984 0.347-0.691 0.745-1.353 1.192-1.984 1.369-1.917 3.608-4.016 6.808-4.016 4.42 0 8 3.511 8 7.84 0 4.137-2.6 6.576-6.729 10.453-2.387 2.24-5.284 4.963-8.487 8.763z"></path>
        </symbol>
        <symbol id="icon-map" viewBox="0 0 32 32">
            <path d="M31.634 0.226c0.224 0.185 0.366 0.462 0.366 0.773 0 0.001 0 0.001 0 0.002v-0 28c-0.001 0.483-0.343 0.885-0.798 0.978l-0.006 0.001-10 2c-0.059 0.012-0.127 0.019-0.196 0.019s-0.137-0.007-0.202-0.020l0.006 0.001-9.803-1.96-9.803 1.96c-0.059 0.012-0.127 0.020-0.197 0.020-0.552 0-0.999-0.447-1-0.999v-28c0-0 0-0 0-0 0-0.483 0.342-0.885 0.797-0.979l0.006-0.001 10-2c0.059-0.012 0.127-0.019 0.196-0.019s0.137 0.007 0.202 0.021l-0.006-0.001 9.805 1.96 9.805-1.96c0.059-0.012 0.127-0.019 0.196-0.019 0.241 0 0.462 0.085 0.635 0.227l-0.002-0.001zM20 3.819l-8-1.6v25.96l8 1.6v-25.96zM22 29.779l8-1.6v-25.96l-8 1.6v25.96zM10 28.179v-25.96l-8 1.6v25.96l8-1.6z"></path>
        </symbol>
    </defs>
</svg>